<?xml version="1.0" encoding="utf-8"?>
<!-- Generator: Adobe Illustrator 26.0.0, SVG Export Plug-In . SVG Version: 6.00 Build 0)  -->
<svg version="1.1" id="Capa_1" xmlns="http://www.w3.org/2000/svg" xmlns:xlink="http://www.w3.org/1999/xlink" x="0px" y="0px"
	 viewBox="0 0 50 50" style="enable-background:new 0 0 50 50;" xml:space="preserve">
<style type="text/css">
	.st0{fill:#FFF7F0;}
	.st1{fill:#3E2A16;}
	.st2{fill:#FFFFFF;}
	.st3{fill:#F07F25;}
</style>
<circle class="st0" cx="25" cy="25" r="25"/>
<g>
	<rect x="0" y="17.49" class="st1" width="50" height="15.73"/>
	<g>
		<g>
			<g>
				<g>
					<path class="st1" d="M47.64,34.58c-4.47,10.72-16.16,17.02-27.86,14.35c-7.9-1.8-14.02-7.28-16.98-14.21l-0.4,0
						c2.97,7.08,9.37,12.77,17.3,14.57C31.63,52,43.55,45.54,48.04,34.57L47.64,34.58z"/>
				</g>
			</g>
			<g>
				<g>
					<path class="st1" d="M46.5,34.51c-4.35,10.06-15.4,15.94-26.47,13.42c-7.41-1.69-13.19-6.76-16.07-13.22l-0.22,0
						c2.88,6.52,8.88,11.74,16.24,13.42c11.19,2.55,22.37-3.42,26.74-13.62L46.5,34.51z"/>
				</g>
			</g>
			<g>
				<g>
					<path class="st1" d="M2.55,16.19C6.66,5.33,18.12-1.36,29.91,0.9c7.89,1.52,14.15,6.71,17.37,13.45
						c0.03,0.06,0.66,1.44,0.79,1.79l0.43-0.01c-0.03-0.07-0.76-1.76-0.79-1.83C44.46,7.39,38.03,2.09,29.98,0.54
						C17.96-1.77,6.27,5.09,2.15,16.2L2.55,16.19z"/>
				</g>
			</g>
			<g>
				<g>
					<path class="st1" d="M3.7,16.21c4.01-10.2,14.85-16.45,26-14.31c7.44,1.43,13.37,6.28,16.48,12.61
						c0.01,0.02,0.56,1.22,0.68,1.61h0.23c-0.07-0.28-0.69-1.61-0.7-1.64C43.26,8.08,37.26,3.16,29.74,1.71
						C18.46-0.46,7.5,5.88,3.48,16.22L3.7,16.21z"/>
				</g>
			</g>
		</g>
	</g>
	<g>
		<g>
			<path class="st2" d="M6.22,19.46c0.32,0,0.57,0.28,0.57,0.62v0.46c0,0.34-0.25,0.62-0.57,0.62H3.8v3.24h1.78
				c0.32,0,0.57,0.28,0.57,0.62v0.46c0,0.34-0.25,0.62-0.57,0.62H3.8v4.34c0,0.34-0.27,0.62-0.57,0.62H2.79
				c-0.32,0-0.57-0.28-0.57-0.62V20.08c0-0.34,0.25-0.62,0.57-0.62H6.22z"/>
			<path class="st2" d="M7.22,22.82c0-2.17,0.88-3.36,2.61-3.36c1.75,0,2.61,1.17,2.61,3.36v4.87c0,1.36-0.33,2.15-0.83,2.69
				c-0.53,0.55-1.19,0.69-1.78,0.69c-0.57,0-1.24-0.14-1.77-0.69c-0.49-0.53-0.84-1.33-0.84-2.69V22.82z M8.82,27.69
				c0,1.14,0.33,1.67,1.02,1.67c0.67,0,1.02-0.5,1.02-1.67v-4.87c0-1.15-0.33-1.65-1.02-1.65c-0.7,0-1.02,0.53-1.02,1.65V27.69z"/>
			<path class="st2" d="M18.81,30.43c0,0.34-0.25,0.62-0.57,0.62h-0.45c-0.32,0-0.57-0.28-0.57-0.62v-2.88
				c0-0.86-0.45-1.34-1.22-1.34h-0.72v4.22c0,0.34-0.25,0.62-0.56,0.62h-0.45c-0.32,0-0.57-0.28-0.57-0.62V20.06
				c0-0.34,0.25-0.62,0.57-0.62h2c1.96,0,2.64,1.07,2.64,3.37c0,1.07-0.17,1.93-0.67,2.46c-0.05,0.05-0.08,0.09-0.13,0.14
				c0.46,0.53,0.68,1.24,0.68,2.13V30.43z M15.27,24.47h0.72c0.89,0,1.35-0.48,1.35-1.65c0-1.17-0.24-1.65-1.07-1.65h-1V24.47z"/>
			<path class="st2" d="M27.35,19.46c0.32,0,0.57,0.28,0.57,0.62v0.46c0,0.34-0.25,0.62-0.57,0.62h-2.43v3.24h2
				c0.32,0,0.57,0.28,0.57,0.62v0.46c0,0.34-0.25,0.62-0.57,0.62h-2v3.25h2.43c0.32,0,0.57,0.28,0.57,0.62v0.46
				c0,0.34-0.25,0.62-0.57,0.62h-3.44c-0.32,0-0.57-0.28-0.57-0.62V20.08c0-0.34,0.25-0.62,0.57-0.62H27.35z"/>
			<path class="st2" d="M33.4,30.44c0,0.34-0.25,0.62-0.57,0.62h-3.39c-0.32,0-0.57-0.28-0.57-0.62V20.08
				c0-0.34,0.25-0.62,0.57-0.62h0.46c0.3,0,0.56,0.28,0.56,0.62v9.28h2.37c0.32,0,0.57,0.28,0.57,0.62V30.44z"/>
			<path class="st2" d="M35.83,30.44c0,0.34-0.27,0.62-0.57,0.62h-0.45c-0.32,0-0.57-0.28-0.57-0.62V20.08
				c0-0.34,0.25-0.62,0.57-0.62h0.45c0.3,0,0.57,0.28,0.57,0.62V30.44z"/>
			<path class="st2" d="M36.91,27.47c0-0.34,0.25-0.62,0.57-0.62h0.45c0.3,0,0.57,0.28,0.57,0.62v0.22c0,0.83,0.14,1.22,0.37,1.43
				c0.17,0.19,0.45,0.22,0.67,0.22c0.67,0,1.03-0.31,1.03-1.22c0-0.81-0.73-1.45-1.51-2.1v0.02c-1.05-0.9-2.15-1.83-2.15-3.53
				c0-1.95,0.94-3.06,2.63-3.06c1.72,0,2.63,1.19,2.63,3.37v0.24c0,0.34-0.25,0.62-0.57,0.62h-0.45c-0.32,0-0.57-0.28-0.57-0.62
				v-0.24c0-1.14-0.33-1.65-1.03-1.65c-0.67,0-1.03,0.4-1.03,1.29c0,0.88,0.78,1.55,1.56,2.2h-0.02c1.05,0.88,2.12,1.76,2.12,3.43
				c0,1.93-0.94,2.96-2.63,2.96c-1.75,0-2.63-1.1-2.63-3.36V27.47z"/>
			<path class="st2" d="M47.24,19.46c0.32,0,0.57,0.28,0.57,0.62v0.46c0,0.34-0.25,0.62-0.57,0.62H44.8v3.24h2
				c0.32,0,0.57,0.28,0.57,0.62v0.46c0,0.34-0.25,0.62-0.57,0.62h-2v3.25h2.43c0.32,0,0.57,0.28,0.57,0.62v0.46
				c0,0.34-0.25,0.62-0.57,0.62H43.8c-0.32,0-0.57-0.28-0.57-0.62V20.08c0-0.34,0.25-0.62,0.57-0.62H47.24z"/>
		</g>
	</g>
	<g>
		<circle class="st3" cx="26.17" cy="6.72" r="1.48"/>
		<g>
			<g>
				<g>
					<path class="st1" d="M16.71,15.33l0.02-0.17c0.16-1.77,0.4-4.67,0.36-4.91c-0.06-0.37,0.03-0.53,0.06-0.57l0.03-0.03l7.44-2.71
						l0.12,0.28L17.4,9.9c-0.01,0.05-0.03,0.14,0,0.31c0.06,0.32-0.26,3.9-0.34,4.81l14.65-0.21c0.27,0,0.48-0.2,0.5-0.45l0.41-5.7
						c-0.28-0.23-1.7-1.33-4.85-2.04l0.07-0.29c3.63,0.82,5,2.11,5.06,2.16l0.05,0.05l-0.42,5.84c-0.03,0.41-0.38,0.72-0.81,0.73
						L16.71,15.33z"/>
				</g>
			</g>
			<g>
				<g>
					<path class="st1" d="M16.93,14.89l-0.01-0.3l14.13-0.31c0.24-0.01,0.43-0.18,0.44-0.41l0.34-4.67c0.02-0.22-0.1-0.44-0.29-0.58
						c-1.75-1.16-3.78-1.51-3.8-1.51l0.05-0.3c0.09,0.01,2.12,0.37,3.92,1.56c0.29,0.19,0.46,0.52,0.43,0.84l-0.34,4.67
						c-0.03,0.38-0.35,0.67-0.75,0.69L16.93,14.89z"/>
				</g>
			</g>
			<g>
				<g>
					<g>
						<path class="st1" d="M27.33,8.32c0,0-0.01,0-0.02,0.01c-0.01,0-0.04,0.01-0.07,0.02c-0.06,0.01-0.15,0.02-0.25,0
							c-0.11-0.01-0.23-0.04-0.36-0.06c-0.13-0.02-0.27-0.03-0.41,0.02c-0.07,0.02-0.16,0.06-0.26,0.04
							c-0.05-0.01-0.08-0.03-0.11-0.05c-0.03-0.02-0.06-0.03-0.09-0.04c-0.12-0.04-0.24-0.05-0.34-0.04
							c-0.1,0.01-0.18,0.04-0.23,0.06c-0.03,0.01-0.05,0.02-0.06,0.03c-0.01,0.01-0.02,0.01-0.02,0.01s0.01-0.01,0.02-0.02
							c0.01-0.01,0.03-0.02,0.05-0.04c0.05-0.03,0.12-0.08,0.23-0.1c0.1-0.03,0.24-0.04,0.38,0c0.07,0.02,0.15,0.06,0.2,0.07
							c0.05,0.01,0.11-0.01,0.19-0.04c0.08-0.03,0.17-0.04,0.25-0.04c0.08,0,0.16,0.02,0.22,0.03c0.14,0.03,0.25,0.08,0.35,0.1
							c0.1,0.03,0.18,0.04,0.24,0.04c0.03,0,0.05,0,0.07,0C27.32,8.32,27.33,8.32,27.33,8.32z"/>
					</g>
				</g>
			</g>
			<g>
				<g>
					<g>
						<path class="st1" d="M31.68,9.25c0,0-0.01,0-0.04,0.01c-0.02,0.01-0.06,0.02-0.11,0.03c-0.09,0.02-0.24,0.05-0.42,0.05
							c-0.19,0-0.42,0-0.68-0.07c-0.13-0.03-0.26-0.09-0.38-0.07c-0.13,0.02-0.25,0.1-0.39,0.18c-0.07,0.04-0.15,0.09-0.24,0.12
							c-0.09,0.03-0.21,0.04-0.31,0.02c-0.21-0.04-0.37-0.16-0.53-0.22c-0.16-0.07-0.3-0.07-0.46,0.02
							c-0.16,0.08-0.31,0.23-0.53,0.34c-0.22,0.12-0.5,0.14-0.74,0.11c-0.25-0.03-0.48-0.11-0.7-0.17c-0.22-0.06-0.45-0.11-0.66-0.1
							c-0.22,0.01-0.44,0.07-0.67,0.15c-0.23,0.08-0.47,0.17-0.72,0.23c-0.25,0.06-0.54,0.08-0.8,0.01
							c-0.26-0.07-0.46-0.19-0.65-0.24c-0.09-0.02-0.18-0.03-0.28-0.02c-0.09,0.01-0.19,0.04-0.29,0.07
							c-0.4,0.14-0.81,0.28-1.22,0.31c-0.2,0.02-0.41,0-0.59-0.05c-0.18-0.05-0.34-0.11-0.49-0.14c-0.3-0.07-0.55,0.11-0.8,0.21
							c-0.25,0.1-0.49,0.12-0.68,0.1c-0.19-0.02-0.33-0.06-0.42-0.1c-0.04-0.02-0.08-0.03-0.1-0.05c-0.02-0.01-0.03-0.02-0.03-0.02
							s0.01,0,0.03,0.01c0.02,0.01,0.06,0.02,0.1,0.04c0.09,0.03,0.23,0.06,0.41,0.06c0.18,0,0.4-0.03,0.63-0.14
							c0.11-0.05,0.23-0.13,0.37-0.19c0.07-0.03,0.15-0.06,0.23-0.08c0.09-0.01,0.18-0.01,0.26-0.01c0.18,0.02,0.35,0.08,0.51,0.11
							c0.17,0.03,0.34,0.04,0.52,0.02c0.37-0.04,0.74-0.19,1.15-0.34c0.1-0.04,0.22-0.08,0.34-0.1c0.13-0.02,0.27-0.02,0.4,0.01
							c0.26,0.06,0.46,0.18,0.66,0.23c0.2,0.05,0.41,0.03,0.63-0.02c0.22-0.06,0.45-0.14,0.69-0.22c0.24-0.08,0.5-0.15,0.78-0.16
							c0.28-0.01,0.53,0.06,0.77,0.13c0.23,0.07,0.45,0.14,0.65,0.17c0.21,0.03,0.4,0.02,0.56-0.06c0.17-0.08,0.33-0.22,0.53-0.32
							c0.1-0.05,0.22-0.09,0.35-0.09c0.13,0,0.24,0.04,0.34,0.08c0.19,0.09,0.33,0.2,0.48,0.24c0.14,0.04,0.28-0.02,0.42-0.09
							c0.14-0.07,0.29-0.16,0.46-0.17c0.09-0.01,0.17,0.01,0.24,0.04c0.07,0.02,0.13,0.05,0.19,0.07c0.24,0.08,0.47,0.11,0.65,0.12
							c0.18,0.01,0.33,0,0.42-0.02c0.05-0.01,0.08-0.01,0.11-0.02C31.67,9.26,31.68,9.25,31.68,9.25z"/>
					</g>
				</g>
			</g>
			<path class="st1" d="M27.89,6.28c-0.1-0.5-0.48-0.93-0.94-1.09C26.68,5.09,26.4,5.1,26.15,5.2c0.01-0.36-0.12-0.89-0.83-1.39
				c-0.07-0.05-0.17-0.04-0.22,0.03C25.04,3.91,25.06,4,25.13,4.05c0.68,0.48,0.73,0.98,0.69,1.28c-0.41-0.03-0.77,0.09-1.04,0.35
				c-0.31,0.3-0.44,0.75-0.34,1.22c0.16,0.75,0.83,1.29,1.61,1.34c0.15,0.01,0.3,0,0.45-0.02c0.46-0.08,0.86-0.33,1.12-0.69
				C27.88,7.15,27.98,6.71,27.89,6.28z M27.36,7.35c-0.21,0.3-0.54,0.5-0.91,0.57c-0.78,0.14-1.53-0.35-1.69-1.08
				c-0.08-0.36,0.02-0.72,0.26-0.95c0.19-0.18,0.45-0.27,0.74-0.26c0,0.04,0.02,0.07,0.05,0.1c-0.07,0.02-0.14,0.03-0.2,0.04
				c-0.08,0.02-0.13,0.03-0.13,0.03s0.05,0.02,0.13,0.03c0.08,0.01,0.2,0.02,0.33-0.01c0.13-0.04,0.22-0.12,0.27-0.19
				c0.02-0.04,0.03-0.07,0.04-0.09c0.01-0.02,0.01-0.03,0.01-0.03s-0.03,0.04-0.1,0.08c-0.03,0.02-0.06,0.03-0.09,0.05
				c0-0.01,0.01-0.03,0.02-0.06c0.23-0.16,0.49-0.2,0.75-0.11c0.36,0.12,0.65,0.46,0.74,0.86l0,0C27.65,6.69,27.57,7.05,27.36,7.35z
				"/>
			<g>
				<g>
					<g>
						<path class="st1" d="M26.64,7.52c0,0,0.02-0.01,0.05-0.03c0.03-0.02,0.07-0.05,0.12-0.09c0.1-0.08,0.21-0.19,0.32-0.34
							c0.1-0.15,0.17-0.3,0.2-0.41c0.02-0.06,0.03-0.11,0.03-0.14c0.01-0.03,0.01-0.05,0.01-0.05s0,0.02,0.01,0.05
							c0.01,0.03,0.01,0.09,0.01,0.15c0,0.13-0.04,0.3-0.15,0.47c-0.11,0.17-0.27,0.27-0.39,0.33c-0.06,0.03-0.11,0.04-0.15,0.05
							C26.66,7.52,26.64,7.52,26.64,7.52z"/>
					</g>
				</g>
			</g>
			<g>
				<g>
					<polygon class="st1" points="17.08,13.08 17.07,12.88 31.62,12.69 31.63,12.89 					"/>
				</g>
			</g>
			<g>
				<g>
					<polygon class="st1" points="17.13,12.36 17.13,12.16 31.68,11.96 31.68,12.16 					"/>
				</g>
			</g>
			<g>
				<g>
					<polygon class="st1" points="17.2,11.37 17.2,11.17 31.75,10.98 31.75,11.18 					"/>
				</g>
			</g>
			<g>
				<g>
					<polygon class="st1" points="17.23,11.01 17.23,10.81 31.77,10.61 31.78,10.81 					"/>
				</g>
			</g>
			<g>
				<g>
					<g>
						<path class="st1" d="M17.38,13.1c0,0,0.16-0.25,0.43-0.49c0.27-0.24,0.55-0.37,0.55-0.37s-0.19,0.22-0.46,0.46
							C17.63,12.93,17.38,13.1,17.38,13.1z"/>
					</g>
				</g>
			</g>
			<g>
				<g>
					<g>
						<path class="st1" d="M18.17,12.91c0,0,0.14-0.2,0.38-0.38c0.24-0.18,0.48-0.26,0.48-0.26s-0.17,0.18-0.4,0.36
							C18.4,12.79,18.17,12.91,18.17,12.91z"/>
					</g>
				</g>
			</g>
			<g>
				<g>
					<g>
						<path class="st1" d="M18.79,12.89c0,0,0.03-0.05,0.08-0.12c0.05-0.07,0.14-0.16,0.24-0.25c0.11-0.08,0.22-0.14,0.31-0.18
							c0.08-0.04,0.14-0.05,0.14-0.05s-0.16,0.16-0.36,0.32C18.98,12.77,18.79,12.89,18.79,12.89z"/>
					</g>
				</g>
			</g>
			<g>
				<g>
					<g>
						<path class="st1" d="M23.56,12.78c0,0,0.14-0.19,0.36-0.37c0.22-0.18,0.44-0.28,0.44-0.28S24.22,12.32,24,12.5
							C23.78,12.68,23.56,12.78,23.56,12.78z"/>
					</g>
				</g>
			</g>
			<g>
				<g>
					<g>
						<path class="st1" d="M24.59,12.79c0,0,0.12-0.17,0.33-0.33c0.2-0.16,0.41-0.24,0.41-0.24S25.2,12.4,25,12.56
							C24.8,12.71,24.59,12.79,24.59,12.79z"/>
					</g>
				</g>
			</g>
			<g>
				<g>
					<g>
						<path class="st1" d="M25.51,12.84c0,0,0.18-0.22,0.47-0.42c0.29-0.2,0.58-0.28,0.58-0.28s-0.22,0.19-0.5,0.38
							C25.77,12.71,25.51,12.84,25.51,12.84z"/>
					</g>
				</g>
			</g>
			<g>
				<g>
					<g>
						<path class="st1" d="M26.82,12.73c0,0,0.12-0.2,0.34-0.38c0.22-0.18,0.45-0.26,0.45-0.26s-0.15,0.17-0.37,0.35
							C27.02,12.62,26.82,12.73,26.82,12.73z"/>
					</g>
				</g>
			</g>
			<g>
				<g>
					<g>
						<path class="st1" d="M27.96,12.73c0,0,0.11-0.17,0.3-0.31c0.19-0.15,0.38-0.22,0.38-0.22s-0.11,0.17-0.3,0.31
							C28.15,12.66,27.96,12.73,27.96,12.73z"/>
					</g>
				</g>
			</g>
			<g>
				<g>
					<g>
						<path class="st1" d="M29.64,12.88c0,0,0.04-0.06,0.11-0.14c0.07-0.08,0.18-0.19,0.31-0.29c0.13-0.1,0.27-0.17,0.37-0.22
							c0.1-0.05,0.17-0.07,0.17-0.07s-0.2,0.18-0.46,0.38C29.87,12.74,29.64,12.88,29.64,12.88z"/>
					</g>
				</g>
			</g>
			<g>
				<g>
					<g>
						<path class="st1" d="M29.19,12.85c0,0,0.04-0.06,0.11-0.14c0.07-0.08,0.18-0.19,0.31-0.29c0.13-0.1,0.27-0.17,0.37-0.22
							c0.1-0.05,0.17-0.07,0.17-0.07s-0.2,0.18-0.46,0.38C29.42,12.71,29.19,12.85,29.19,12.85z"/>
					</g>
				</g>
			</g>
			<g>
				<g>
					<g>
						<path class="st1" d="M30.16,12.9c0,0,0.16-0.25,0.43-0.49c0.27-0.24,0.54-0.37,0.54-0.37s-0.19,0.22-0.45,0.46
							C30.4,12.73,30.16,12.9,30.16,12.9z"/>
					</g>
				</g>
			</g>
			<g>
				<g>
					<g>
						<path class="st1" d="M30.01,11.2c0,0,0.02-0.03,0.06-0.08c0.04-0.05,0.1-0.1,0.17-0.16c0.07-0.05,0.15-0.09,0.2-0.12
							c0.06-0.03,0.09-0.04,0.09-0.04s-0.11,0.1-0.25,0.21C30.14,11.12,30.01,11.2,30.01,11.2z"/>
					</g>
				</g>
			</g>
			<g>
				<g>
					<g>
						<path class="st1" d="M29.76,11.18c0,0,0.02-0.03,0.06-0.08c0.04-0.05,0.1-0.1,0.17-0.16c0.07-0.05,0.15-0.09,0.2-0.12
							c0.06-0.03,0.09-0.04,0.09-0.04s-0.11,0.1-0.25,0.21C29.89,11.1,29.76,11.18,29.76,11.18z"/>
					</g>
				</g>
			</g>
			<g>
				<g>
					<g>
						<path class="st1" d="M30.29,11.2c0,0,0.09-0.14,0.23-0.27c0.15-0.13,0.3-0.2,0.3-0.2s-0.1,0.12-0.25,0.25
							C30.43,11.11,30.29,11.2,30.29,11.2z"/>
					</g>
				</g>
			</g>
			<g>
				<g>
					<g>
						<path class="st1" d="M22.58,15.56c0,0-1.24-0.01-2.77-0.12c-1.53-0.11-2.76-0.28-2.76-0.28s1.24,0.01,2.77,0.12
							C21.35,15.39,22.58,15.56,22.58,15.56z"/>
					</g>
				</g>
			</g>
			<g>
				<g>
					<g>
						<path class="st1" d="M28.52,15.79c0,0-2.06-0.07-4.59-0.25c-2.53-0.18-4.58-0.41-4.58-0.41s2.06,0.07,4.59,0.25
							C26.48,15.56,28.52,15.79,28.52,15.79z"/>
					</g>
				</g>
			</g>
			<g>
				<g>
					<g>
						<path class="st1" d="M33.87,14.8c0,0-0.4,0.05-0.88,0.02s-0.87-0.14-0.87-0.14s0.4-0.05,0.88-0.02
							C33.48,14.69,33.87,14.8,33.87,14.8z"/>
					</g>
				</g>
			</g>
			<g>
				<g>
					<g>
						<path class="st1" d="M33.31,14.38c0,0-0.23,0.06-0.5,0.04c-0.27-0.02-0.49-0.12-0.49-0.12s0.23-0.06,0.5-0.04
							C33.09,14.28,33.31,14.38,33.31,14.38z"/>
					</g>
				</g>
			</g>
		</g>
	</g>
	<g>
		<circle class="st1" cx="5.27" cy="35.75" r="0.25"/>
		<circle class="st1" cx="45.12" cy="35.79" r="0.25"/>
		<g>
			<g>
				<path class="st1" d="M6.09,35.63c0-0.24-0.01-0.43-0.02-0.61h0.3l0.02,0.32h0.01c0.14-0.23,0.36-0.36,0.66-0.36
					c0.45,0,0.79,0.38,0.79,0.95c0,0.67-0.41,1-0.85,1c-0.25,0-0.46-0.11-0.57-0.29H6.43v1.01H6.09V35.63z M6.43,36.12
					c0,0.05,0.01,0.1,0.02,0.14c0.06,0.23,0.27,0.4,0.51,0.4c0.36,0,0.57-0.29,0.57-0.72c0-0.37-0.2-0.69-0.55-0.69
					c-0.23,0-0.45,0.17-0.51,0.42c-0.01,0.04-0.02,0.09-0.02,0.14V36.12z"/>
				<path class="st1" d="M9.48,36.88l-0.03-0.23H9.44c-0.1,0.15-0.3,0.28-0.57,0.28c-0.38,0-0.57-0.27-0.57-0.53
					c0-0.45,0.4-0.7,1.12-0.69v-0.04c0-0.15-0.04-0.43-0.42-0.43c-0.17,0-0.35,0.05-0.48,0.14l-0.08-0.22
					c0.15-0.1,0.38-0.17,0.61-0.17c0.57,0,0.71,0.39,0.71,0.76v0.7c0,0.16,0.01,0.32,0.03,0.45H9.48z M9.43,35.93
					c-0.37-0.01-0.79,0.06-0.79,0.42c0,0.22,0.15,0.32,0.32,0.32c0.24,0,0.4-0.15,0.45-0.31c0.01-0.03,0.02-0.07,0.02-0.11V35.93z"
					/>
				<path class="st1" d="M10.47,35.52c0-0.19,0-0.35-0.02-0.5h0.3l0.02,0.31h0.01c0.09-0.18,0.31-0.35,0.61-0.35
					c0.26,0,0.66,0.15,0.66,0.79v1.11h-0.34v-1.07c0-0.3-0.11-0.55-0.43-0.55c-0.22,0-0.4,0.16-0.45,0.35
					c-0.02,0.04-0.02,0.1-0.02,0.16v1.12h-0.34V35.52z"/>
				<path class="st1" d="M13.8,36.88l-0.03-0.23h-0.01c-0.1,0.15-0.3,0.28-0.57,0.28c-0.38,0-0.57-0.27-0.57-0.53
					c0-0.45,0.4-0.7,1.12-0.69v-0.04c0-0.15-0.04-0.43-0.42-0.43c-0.17,0-0.35,0.05-0.48,0.14l-0.08-0.22
					c0.15-0.1,0.38-0.17,0.61-0.17c0.57,0,0.71,0.39,0.71,0.76v0.7c0,0.16,0.01,0.32,0.03,0.45H13.8z M13.75,35.93
					c-0.37-0.01-0.79,0.06-0.79,0.42c0,0.22,0.15,0.32,0.32,0.32c0.24,0,0.4-0.15,0.45-0.31c0.01-0.03,0.02-0.07,0.02-0.11V35.93z"
					/>
				<path class="st1" d="M16.4,34.15v2.25c0,0.17,0,0.35,0.02,0.48h-0.3l-0.02-0.32h-0.01c-0.1,0.21-0.33,0.37-0.63,0.37
					c-0.45,0-0.8-0.38-0.8-0.95c0-0.62,0.38-1,0.83-1c0.28,0,0.48,0.13,0.56,0.28h0.01v-1.11H16.4z M16.06,35.77
					c0-0.04,0-0.1-0.02-0.14c-0.05-0.22-0.23-0.39-0.49-0.39c-0.35,0-0.56,0.31-0.56,0.72c0,0.38,0.18,0.69,0.55,0.69
					c0.23,0,0.43-0.15,0.5-0.4c0.01-0.05,0.02-0.09,0.02-0.15V35.77z"/>
				<path class="st1" d="M17.32,36.01c0.01,0.46,0.3,0.65,0.64,0.65c0.24,0,0.39-0.04,0.52-0.1l0.06,0.24
					c-0.12,0.05-0.32,0.12-0.62,0.12c-0.57,0-0.91-0.38-0.91-0.94s0.33-1,0.87-1c0.61,0,0.77,0.53,0.77,0.88
					c0,0.07-0.01,0.12-0.01,0.16H17.32z M18.31,35.77c0-0.22-0.09-0.55-0.47-0.55c-0.34,0-0.49,0.32-0.52,0.55H18.31z"/>
				<path class="st1" d="M19.23,35.6c0-0.22,0-0.41-0.02-0.58h0.3l0.01,0.37h0.02c0.08-0.25,0.29-0.41,0.52-0.41
					c0.04,0,0.07,0,0.1,0.01v0.32c-0.03-0.01-0.07-0.01-0.12-0.01c-0.24,0-0.41,0.18-0.45,0.43c-0.01,0.05-0.02,0.1-0.02,0.16v0.99
					h-0.33V35.6z"/>
				<path class="st1" d="M21.36,34.21l-0.47,0.55h-0.24l0.34-0.55H21.36z M20.67,36.88v-1.86h0.34v1.86H20.67z"/>
				<path class="st1" d="M22.77,36.88l-0.03-0.23h-0.01c-0.1,0.15-0.3,0.28-0.57,0.28c-0.38,0-0.57-0.27-0.57-0.53
					c0-0.45,0.4-0.7,1.12-0.69v-0.04c0-0.15-0.04-0.43-0.42-0.43c-0.17,0-0.35,0.05-0.48,0.14l-0.08-0.22
					c0.15-0.1,0.38-0.17,0.61-0.17c0.57,0,0.71,0.39,0.71,0.76v0.7c0,0.16,0.01,0.32,0.03,0.45H22.77z M22.72,35.93
					c-0.37-0.01-0.79,0.06-0.79,0.42c0,0.22,0.15,0.32,0.32,0.32c0.24,0,0.4-0.15,0.45-0.31c0.01-0.03,0.02-0.07,0.02-0.11V35.93z"
					/>
				<path class="st1" d="M26.38,36.88c-0.07-0.07-0.14-0.15-0.24-0.25c-0.22,0.21-0.47,0.3-0.76,0.3c-0.5,0-0.8-0.34-0.8-0.73
					c0-0.35,0.21-0.6,0.51-0.76v-0.01c-0.13-0.17-0.22-0.36-0.22-0.54c0-0.32,0.23-0.64,0.66-0.64c0.32,0,0.57,0.22,0.57,0.55
					c0,0.27-0.16,0.49-0.57,0.69v0.01c0.22,0.25,0.47,0.54,0.63,0.72c0.12-0.18,0.2-0.43,0.25-0.76h0.31
					c-0.07,0.41-0.18,0.73-0.37,0.96c0.14,0.15,0.27,0.29,0.43,0.46H26.38z M25.97,36.43c-0.15-0.17-0.44-0.48-0.73-0.81
					c-0.14,0.09-0.33,0.25-0.33,0.53c0,0.3,0.22,0.52,0.53,0.52C25.66,36.67,25.85,36.57,25.97,36.43z M25.18,34.85
					c0,0.18,0.08,0.33,0.2,0.47c0.26-0.15,0.43-0.29,0.43-0.51c0-0.16-0.09-0.33-0.3-0.33C25.29,34.48,25.18,34.65,25.18,34.85z"/>
				<path class="st1" d="M29.55,36.81c-0.09,0.05-0.28,0.11-0.53,0.11c-0.56,0-0.93-0.38-0.93-0.95c0-0.57,0.39-0.99,1-0.99
					c0.2,0,0.38,0.05,0.47,0.1l-0.08,0.26c-0.08-0.05-0.21-0.09-0.39-0.09c-0.43,0-0.66,0.32-0.66,0.7c0,0.43,0.28,0.7,0.65,0.7
					c0.19,0,0.32-0.05,0.42-0.09L29.55,36.81z"/>
				<path class="st1" d="M31.77,35.93c0,0.69-0.48,0.99-0.93,0.99c-0.5,0-0.89-0.37-0.89-0.96c0-0.62,0.41-0.99,0.92-0.99
					C31.41,34.98,31.77,35.36,31.77,35.93z M30.3,35.95c0,0.41,0.23,0.71,0.57,0.71c0.32,0,0.57-0.3,0.57-0.72
					c0-0.32-0.16-0.71-0.56-0.71C30.47,35.23,30.3,35.6,30.3,35.95z"/>
				<path class="st1" d="M32.37,35.52c0-0.19,0-0.35-0.02-0.5h0.3l0.02,0.31h0.01c0.09-0.18,0.31-0.35,0.61-0.35
					c0.26,0,0.66,0.15,0.66,0.79v1.11h-0.34v-1.07c0-0.3-0.11-0.55-0.43-0.55c-0.22,0-0.4,0.16-0.45,0.35
					c-0.02,0.04-0.02,0.1-0.02,0.16v1.12h-0.34V35.52z"/>
				<path class="st1" d="M34.71,36.88v-1.6h-0.26v-0.26h0.26v-0.09c0-0.26,0.06-0.5,0.22-0.65c0.13-0.12,0.3-0.17,0.45-0.17
					c0.12,0,0.22,0.03,0.29,0.05l-0.05,0.26c-0.05-0.02-0.12-0.04-0.22-0.04c-0.29,0-0.36,0.25-0.36,0.54v0.1h0.45v0.26h-0.45v1.6
					H34.71z"/>
				<path class="st1" d="M36.4,34.49c0,0.12-0.08,0.21-0.22,0.21c-0.12,0-0.2-0.09-0.2-0.21c0-0.12,0.09-0.21,0.21-0.21
					C36.32,34.28,36.4,34.38,36.4,34.49z M36.02,36.88v-1.86h0.34v1.86H36.02z"/>
				<path class="st1" d="M37.5,34.48v0.53h0.48v0.26H37.5v1c0,0.23,0.07,0.36,0.25,0.36c0.09,0,0.15-0.01,0.2-0.02l0.02,0.25
					c-0.07,0.03-0.17,0.05-0.3,0.05c-0.16,0-0.28-0.05-0.37-0.14c-0.1-0.1-0.13-0.27-0.13-0.48v-1.01h-0.29v-0.26h0.29v-0.45
					L37.5,34.48z"/>
				<path class="st1" d="M38.7,36.01c0.01,0.46,0.3,0.65,0.64,0.65c0.24,0,0.39-0.04,0.52-0.1l0.06,0.24
					c-0.12,0.05-0.32,0.12-0.62,0.12c-0.57,0-0.91-0.38-0.91-0.94s0.33-1,0.87-1c0.61,0,0.77,0.53,0.77,0.88
					c0,0.07-0.01,0.12-0.01,0.16H38.7z M39.69,35.77c0-0.22-0.09-0.55-0.47-0.55c-0.34,0-0.49,0.32-0.52,0.55H39.69z"/>
				<path class="st1" d="M40.6,35.6c0-0.22,0-0.41-0.02-0.58h0.3l0.01,0.37h0.02c0.08-0.25,0.29-0.41,0.52-0.41
					c0.04,0,0.07,0,0.1,0.01v0.32c-0.03-0.01-0.07-0.01-0.12-0.01c-0.24,0-0.41,0.18-0.45,0.43c-0.01,0.05-0.02,0.1-0.02,0.16v0.99
					H40.6V35.6z"/>
				<path class="st1" d="M42.73,34.21l-0.47,0.55h-0.24l0.34-0.55H42.73z M42.04,36.88v-1.86h0.34v1.86H42.04z"/>
				<path class="st1" d="M44.14,36.88l-0.03-0.23H44.1c-0.1,0.15-0.3,0.28-0.57,0.28c-0.38,0-0.57-0.27-0.57-0.53
					c0-0.45,0.4-0.7,1.12-0.69v-0.04c0-0.15-0.04-0.43-0.42-0.43c-0.17,0-0.35,0.05-0.48,0.14l-0.08-0.22
					c0.15-0.1,0.38-0.17,0.61-0.17c0.57,0,0.71,0.39,0.71,0.76v0.7c0,0.16,0.01,0.32,0.03,0.45H44.14z M44.09,35.93
					c-0.37-0.01-0.79,0.06-0.79,0.42c0,0.22,0.15,0.32,0.32,0.32c0.24,0,0.4-0.15,0.45-0.31c0.01-0.03,0.02-0.07,0.02-0.11V35.93z"
					/>
			</g>
		</g>
	</g>
</g>
</svg>
