<?xml version="1.0" encoding="utf-8"?>
<!-- Generator: Adobe Illustrator 26.0.0, SVG Export Plug-In . SVG Version: 6.00 Build 0)  -->
<svg version="1.1" id="Capa_1" xmlns="http://www.w3.org/2000/svg" xmlns:xlink="http://www.w3.org/1999/xlink" x="0px" y="0px"
	 viewBox="0 0 80 80" style="enable-background:new 0 0 80 80;" xml:space="preserve">
<style type="text/css">
	.st0{fill:#F47F20;}
	.st1{fill:#FFFFFF;}
</style>
<g>
	<path class="st0" d="M39.61,10.93c0.24,1.17,1.46,1.95,2.7,1.73c0.6-0.11,1.12-0.43,1.46-0.91c0.34-0.48,0.46-1.05,0.35-1.62v0
		c-0.13-0.64-0.6-1.18-1.18-1.38C42.62,8.64,42.3,8.69,42,8.82c0,0.01,0,0.02-0.01,0.04C41.98,8.89,41.96,8.94,41.93,9
		c-0.07,0.11-0.22,0.24-0.43,0.3c-0.2,0.06-0.39,0.04-0.52,0.02c-0.13-0.02-0.21-0.05-0.21-0.05s0.08-0.02,0.21-0.04
		c0.09-0.02,0.2-0.04,0.31-0.07C41.24,9.12,41.21,9.06,41.2,9c-0.47-0.02-0.88,0.12-1.18,0.41C39.64,9.78,39.49,10.35,39.61,10.93z
		 M41.85,8.93c-0.04,0.03-0.09,0.06-0.14,0.08c0-0.02,0.01-0.05,0.03-0.09c0.08-0.05,0.16-0.06,0.25-0.1
		C41.97,8.84,41.94,8.88,41.85,8.93z"/>
	<g>
		<path class="st1" d="M76.23,55.32l0.64,0c-7.19,17.55-26.25,27.89-45.35,23.54C18.83,75.97,8.59,66.87,3.84,55.54l0.64,0
			c4.74,11.1,14.53,19.87,27.18,22.74C50.38,82.55,69.07,72.47,76.23,55.32z M32.05,76.69c-11.86-2.7-21.1-10.82-25.71-21.16
			l-0.35,0C10.59,65.97,20.19,74.32,31.97,77c17.91,4.08,35.79-5.47,42.78-21.79l-0.35,0C67.43,71.31,49.75,80.72,32.05,76.69z
			 M76.34,22.89C71.14,11.83,60.85,3.34,47.96,0.86C28.74-2.83,10.04,8.14,3.44,25.93l0.64-0.02C10.65,8.52,28.99-2.18,47.85,1.44
			c12.62,2.43,22.64,10.73,27.79,21.52c0.05,0.1,1.06,2.3,1.26,2.86l0.69-0.01C77.55,25.71,76.38,22.99,76.34,22.89z M75.34,25.8
			c-0.11-0.45-1.1-2.57-1.12-2.62c-5-10.26-14.59-18.13-26.64-20.45C29.54-0.73,12,9.42,5.56,25.96l0.35-0.01
			C12.33,9.62,29.68-0.37,47.52,3.05c11.9,2.29,21.39,10.05,26.36,20.18c0.02,0.03,0.9,1.95,1.09,2.57H75.34z M28.42,15.97
			c-0.04-0.02-0.05-0.03-0.05-0.03S28.39,15.95,28.42,15.97c0.04,0.01,0.1,0.03,0.17,0.05c0.15,0.04,0.37,0.1,0.66,0.1
			c0.29,0,0.65-0.05,1.01-0.23c0.18-0.09,0.36-0.21,0.59-0.31c0.11-0.05,0.24-0.1,0.37-0.12c0.14-0.02,0.28-0.02,0.42-0.01
			c0.28,0.03,0.55,0.12,0.82,0.18c0.27,0.05,0.54,0.06,0.84,0.03c0.59-0.07,1.18-0.3,1.83-0.55c0.17-0.06,0.35-0.12,0.55-0.16
			c0.2-0.04,0.43-0.03,0.64,0.02c0.41,0.1,0.74,0.29,1.06,0.36c0.31,0.08,0.66,0.05,1.01-0.03c0.36-0.09,0.72-0.23,1.11-0.35
			c0.39-0.13,0.8-0.25,1.24-0.26c0.45-0.02,0.86,0.1,1.22,0.2c0.37,0.11,0.71,0.23,1.04,0.28c0.33,0.05,0.64,0.03,0.9-0.1
			c0.27-0.13,0.53-0.35,0.86-0.51c0.16-0.08,0.36-0.14,0.56-0.14c0.2,0,0.39,0.06,0.54,0.14c0.3,0.15,0.53,0.32,0.77,0.38
			c0.23,0.07,0.45-0.03,0.68-0.14c0.23-0.11,0.46-0.26,0.74-0.28c0.14-0.01,0.27,0.02,0.38,0.06c0.11,0.04,0.21,0.08,0.3,0.11
			c0.39,0.13,0.75,0.17,1.04,0.19c0.29,0.01,0.52,0,0.67-0.03c0.08-0.01,0.13-0.02,0.17-0.03c0.04-0.01,0.06-0.01,0.06-0.01
			s-0.02,0.01-0.06,0.02c-0.04,0.01-0.09,0.03-0.17,0.05c-0.15,0.04-0.38,0.08-0.68,0.09c-0.3,0.01-0.67-0.01-1.09-0.11
			c-0.21-0.05-0.42-0.15-0.61-0.12c-0.2,0.03-0.4,0.16-0.63,0.29c-0.11,0.07-0.24,0.14-0.39,0.19c-0.15,0.05-0.33,0.07-0.5,0.03
			c-0.34-0.07-0.59-0.26-0.85-0.36c-0.26-0.12-0.49-0.11-0.74,0.04c-0.25,0.13-0.5,0.37-0.84,0.55c-0.35,0.19-0.8,0.23-1.19,0.17
			c-0.4-0.05-0.76-0.17-1.12-0.27c-0.36-0.1-0.71-0.18-1.05-0.17c-0.35,0.01-0.71,0.11-1.08,0.23c-0.37,0.12-0.75,0.26-1.15,0.36
			c-0.4,0.09-0.86,0.13-1.28,0.01c-0.42-0.12-0.74-0.31-1.04-0.39c-0.15-0.04-0.29-0.05-0.44-0.03c-0.15,0.02-0.31,0.06-0.47,0.12
			c-0.65,0.22-1.3,0.45-1.96,0.49c-0.33,0.02-0.66,0-0.95-0.08c-0.29-0.08-0.54-0.18-0.79-0.22c-0.48-0.11-0.88,0.18-1.28,0.33
			c-0.4,0.16-0.79,0.18-1.08,0.16c-0.3-0.03-0.52-0.1-0.67-0.16C28.51,16.01,28.46,15.99,28.42,15.97z M42.96,11.93
			c0.19-0.09,0.44-0.26,0.62-0.52c0.18-0.27,0.24-0.55,0.25-0.75c0-0.1,0-0.18-0.02-0.24c-0.01-0.05-0.02-0.09-0.02-0.09
			s-0.01,0.03-0.02,0.08c-0.01,0.05-0.03,0.13-0.05,0.22c-0.05,0.18-0.16,0.42-0.32,0.66c-0.16,0.24-0.35,0.43-0.51,0.55
			c-0.08,0.06-0.14,0.11-0.19,0.14c-0.05,0.03-0.08,0.05-0.08,0.05s0.03-0.01,0.09-0.02C42.78,12,42.86,11.97,42.96,11.93z
			 M54.19,23.68c0,0-0.64,0.08-1.41,0.03c-0.36-0.03-0.68-0.08-0.93-0.13c-0.23,0.35-0.62,0.59-1.09,0.6l-15.4,0.22
			c0.91,0.05,1.91,0.12,2.96,0.19c4.05,0.29,7.32,0.66,7.32,0.66s-3.29-0.11-7.34-0.4c-1.92-0.14-3.66-0.29-4.96-0.42l-1.46,0.02
			c2.37,0.18,4.25,0.44,4.25,0.44s-1.99-0.02-4.43-0.19c-0.86-0.06-1.66-0.14-2.34-0.21l-2.62,0.04l0.02-0.27
			c0.26-2.84,0.64-7.47,0.58-7.85c-0.1-0.6,0.05-0.85,0.1-0.91l0.04-0.05l11.69-4.26c-0.02-0.06-0.06-0.11-0.07-0.18
			c-0.15-0.74,0.05-1.46,0.55-1.94c0.43-0.41,1.01-0.6,1.66-0.55c0.07-0.47-0.02-1.28-1.11-2.05c-0.11-0.08-0.14-0.23-0.05-0.34
			c0.08-0.11,0.24-0.13,0.36-0.05c1.14,0.8,1.35,1.64,1.33,2.22c0.4-0.15,0.84-0.16,1.27-0.02c0.75,0.26,1.34,0.94,1.51,1.75
			c0.01,0.04,0.01,0.07,0.01,0.11c5.75,1.31,7.93,3.36,8.02,3.45l0.08,0.08l-0.67,9.16c0.13-0.01,0.28-0.02,0.44-0.01
			c0.44,0.03,0.78,0.19,0.78,0.19s-0.36,0.1-0.8,0.07c-0.17-0.01-0.31-0.04-0.44-0.08l0,0.02c-0.01,0.15-0.06,0.29-0.12,0.42
			c0.24-0.01,0.53-0.01,0.85,0.01C53.57,23.51,54.19,23.68,54.19,23.68z M41.71,9.02c0.05-0.03,0.1-0.05,0.14-0.08
			c0.08-0.06,0.12-0.09,0.13-0.11c-0.08,0.04-0.17,0.05-0.25,0.1C41.72,8.97,41.71,9,41.71,9.02z M39.61,10.93
			c0.24,1.17,1.46,1.95,2.7,1.73c0.6-0.11,1.12-0.43,1.46-0.91c0.34-0.48,0.46-1.05,0.35-1.62v0c-0.13-0.64-0.6-1.18-1.18-1.38
			C42.62,8.64,42.3,8.69,42,8.82c0,0.01,0,0.02-0.01,0.04C41.98,8.89,41.96,8.94,41.93,9c-0.07,0.11-0.22,0.24-0.43,0.3
			c-0.2,0.06-0.39,0.04-0.52,0.02c-0.13-0.02-0.21-0.05-0.21-0.05s0.08-0.02,0.21-0.04c0.09-0.02,0.2-0.04,0.31-0.07
			C41.24,9.12,41.21,9.06,41.2,9c-0.47-0.02-0.88,0.12-1.18,0.41C39.64,9.78,39.49,10.35,39.61,10.93z M41.46,13.12
			c0.04,0.02,0.09,0.04,0.12,0.04c0.01,0,0.03-0.01,0.04-0.01C41.57,13.15,41.52,13.13,41.46,13.12z M27.85,16.34
			c0.02,0.11,0.01,0.46-0.02,0.94l22.95-0.3l0.17-2.27c0.03-0.36-0.15-0.71-0.47-0.92c-2.54-1.69-5.43-2.3-5.96-2.4
			c-0.08,0.22-0.18,0.44-0.32,0.64c-0.39,0.55-0.99,0.91-1.67,1.06c0.03,0.01,0.08,0.01,0.11,0.02c0.22,0.06,0.4,0.12,0.56,0.16
			c0.16,0.04,0.29,0.06,0.38,0.06c0.05,0,0.08,0,0.11,0c0.02,0,0.04,0,0.04,0s-0.01,0-0.04,0.01c-0.02,0.01-0.06,0.02-0.1,0.03
			c-0.09,0.02-0.23,0.03-0.4,0.01c-0.17-0.02-0.36-0.06-0.58-0.1c-0.21-0.03-0.44-0.05-0.65,0.03c-0.11,0.04-0.26,0.1-0.42,0.06
			c-0.07-0.02-0.13-0.05-0.18-0.08c-0.05-0.02-0.09-0.05-0.14-0.06c-0.19-0.07-0.38-0.08-0.54-0.06c-0.16,0.02-0.28,0.06-0.36,0.1
			c-0.04,0.02-0.07,0.04-0.09,0.05c-0.02,0.01-0.03,0.02-0.03,0.02s0.01-0.01,0.03-0.02c0.02-0.02,0.04-0.04,0.08-0.07
			c0.07-0.05,0.19-0.12,0.36-0.17c0.1-0.03,0.23-0.03,0.36-0.03c-0.72-0.22-1.32-0.71-1.66-1.37l-11.52,4.19
			C27.82,15.92,27.8,16.07,27.85,16.34z M27.8,17.87l20.09-0.27c0.04-0.03,0.06-0.06,0.1-0.09c0.11-0.08,0.21-0.13,0.29-0.17
			l-20.46,0.27C27.81,17.69,27.8,17.78,27.8,17.87z M48.84,17.5c0.08-0.07,0.16-0.12,0.23-0.17l-0.27,0
			c-0.05,0.04-0.16,0.14-0.32,0.26l0.28,0C48.79,17.56,48.81,17.53,48.84,17.5z M48.74,17.33l-0.37,0
			c-0.07,0.06-0.17,0.15-0.32,0.26c0,0,0,0-0.01,0.01l0.27,0c0.02-0.02,0.04-0.04,0.06-0.06c0.12-0.09,0.24-0.15,0.33-0.19
			C48.73,17.34,48.73,17.34,48.74,17.33z M27.59,20.61l0.49-0.01c0.11-0.13,0.24-0.28,0.41-0.42c0.21-0.18,0.41-0.32,0.58-0.42
			l-1.41,0.02C27.64,20.05,27.62,20.33,27.59,20.61z M37.69,20.45c0,0,0.22-0.31,0.57-0.6c0.11-0.09,0.22-0.16,0.32-0.23l-7.34,0.1
			c-0.06,0.06-0.25,0.24-0.53,0.46c-0.24,0.18-0.45,0.32-0.57,0.39l9.22-0.12c0.04-0.05,0.22-0.28,0.5-0.51
			c0.23-0.18,0.45-0.29,0.57-0.34l-1.65,0.02c-0.1,0.11-0.23,0.24-0.39,0.38C38.05,20.29,37.69,20.45,37.69,20.45z M42.91,20.38
			c0,0,0.18-0.32,0.54-0.61c0.11-0.09,0.21-0.15,0.31-0.21l-1.44,0.02c-0.15,0.12-0.36,0.28-0.62,0.45c-0.26,0.17-0.5,0.31-0.66,0.4
			l5.84-0.08c0,0,0-0.01,0.01-0.01c0.11-0.13,0.28-0.3,0.5-0.46c0.21-0.16,0.43-0.27,0.59-0.35c0.03-0.02,0.05-0.02,0.08-0.03
			l-2.24,0.03c-0.01,0.02-0.18,0.26-0.46,0.49c-0.3,0.24-0.61,0.35-0.61,0.35s0.17-0.26,0.47-0.5c0.26-0.2,0.51-0.31,0.58-0.34
			l-1.81,0.02c-0.1,0.1-0.24,0.23-0.4,0.36C43.24,20.19,42.91,20.38,42.91,20.38z M48.93,19.86c0.18-0.16,0.36-0.28,0.51-0.38
			l-0.5,0.01c-0.03,0.02-0.33,0.3-0.72,0.59c-0.13,0.1-0.25,0.18-0.37,0.26l0.63-0.01C48.6,20.19,48.74,20.03,48.93,19.86z
			 M48.92,19.49l-0.77,0.01c-0.12,0.1-0.36,0.31-0.66,0.53c-0.17,0.13-0.32,0.23-0.46,0.32l0.61-0.01c0.11-0.12,0.25-0.27,0.44-0.41
			c0.21-0.16,0.43-0.27,0.59-0.35C48.81,19.52,48.89,19.5,48.92,19.49z M42.11,19.58l-1.62,0.02c-0.06,0.08-0.23,0.29-0.49,0.49
			c-0.25,0.19-0.5,0.31-0.6,0.36l1.52-0.02c0.12-0.13,0.34-0.35,0.66-0.56C41.76,19.74,41.95,19.65,42.11,19.58z M31.14,19.72
			l-0.8,0.01c-0.11,0.11-0.3,0.28-0.53,0.46c-0.25,0.19-0.48,0.32-0.62,0.4l0.89-0.01c0.02-0.03,0.05-0.08,0.1-0.14
			c0.09-0.11,0.22-0.26,0.39-0.4c0.17-0.13,0.35-0.23,0.49-0.28C31.1,19.74,31.12,19.73,31.14,19.72z M30.19,19.73l-0.97,0.01
			c-0.13,0.14-0.33,0.35-0.58,0.57c-0.12,0.1-0.23,0.2-0.34,0.28l0.83-0.01c0.08-0.11,0.28-0.34,0.56-0.55
			C29.87,19.9,30.05,19.8,30.19,19.73z M27.36,23.33l22.33-0.49c0.38-0.01,0.69-0.29,0.71-0.65l0.11-1.56l-22.66,0.3
			c-0.03,0.02-0.06,0.04-0.06,0.04s0.02-0.02,0.03-0.04l-0.26,0C27.49,21.83,27.42,22.69,27.36,23.33z M50.6,19.46l-1,0.01
			c-0.13,0.14-0.31,0.33-0.54,0.52c-0.14,0.13-0.27,0.23-0.4,0.32l1.87-0.02L50.6,19.46z M50.72,17.88l-2.23,0.03
			c0,0-0.02,0.01-0.02,0.01s0.01-0.01,0.01-0.01l-20.7,0.27c-0.03,0.39-0.06,0.82-0.09,1.26l22.94-0.3L50.72,17.88z M50.76,17.3
			l-1.58,0.02c-0.07,0.07-0.15,0.16-0.26,0.25c0,0-0.01,0.01-0.01,0.01l1.83-0.02L50.76,17.3z M51.55,22.98l0.66-9.12
			c-0.43-0.37-2.66-2.07-7.54-3.2c0,0.09-0.01,0.17-0.03,0.26c0.64,0.12,3.52,0.74,6.13,2.48c0.46,0.31,0.73,0.83,0.69,1.35
			l-0.54,7.48c-0.04,0.6-0.56,1.08-1.2,1.1l-22.39,0.5c-0.01,0.08-0.01,0.16-0.02,0.23l23.45-0.34
			C51.17,23.69,51.52,23.39,51.55,22.98z M8.83,57.2c0,0.22-0.18,0.4-0.4,0.4s-0.4-0.18-0.4-0.4c0-0.22,0.18-0.4,0.4-0.4
			S8.83,56.98,8.83,57.2z M72.2,56.87c-0.22,0-0.4,0.18-0.4,0.4c0,0.22,0.18,0.4,0.4,0.4s0.4-0.18,0.4-0.4
			C72.59,57.05,72.42,56.87,72.2,56.87z M9.75,60.22h0.54v-1.62h0.01c0.18,0.3,0.52,0.47,0.92,0.47c0.7,0,1.35-0.53,1.35-1.6
			c0-0.9-0.54-1.51-1.26-1.51c-0.49,0-0.84,0.22-1.06,0.58h-0.01l-0.02-0.51H9.73c0.01,0.28,0.02,0.59,0.02,0.97V60.22z
			 M10.29,57.28c0-0.07,0.02-0.15,0.04-0.22c0.1-0.41,0.45-0.67,0.82-0.67c0.57,0,0.89,0.51,0.89,1.11c0,0.68-0.33,1.15-0.9,1.15
			c-0.39,0-0.71-0.26-0.81-0.63c-0.01-0.07-0.02-0.14-0.02-0.22V57.28z M15.66,59c-0.04-0.2-0.05-0.46-0.05-0.71v-1.11
			c0-0.6-0.22-1.22-1.13-1.22c-0.38,0-0.73,0.1-0.98,0.26l0.12,0.36c0.21-0.14,0.5-0.22,0.77-0.22c0.61,0,0.68,0.44,0.68,0.69v0.06
			c-1.15-0.01-1.79,0.39-1.79,1.11c0,0.43,0.31,0.85,0.91,0.85c0.42,0,0.74-0.21,0.91-0.44h0.02L15.17,59H15.66z M15.09,58
			c0,0.06-0.01,0.12-0.03,0.17c-0.09,0.25-0.33,0.5-0.72,0.5c-0.28,0-0.51-0.17-0.51-0.52c0-0.58,0.67-0.68,1.26-0.67V58z M16.76,59
			h0.54v-1.79c0-0.09,0.01-0.18,0.04-0.25c0.09-0.3,0.37-0.55,0.73-0.55c0.51,0,0.69,0.4,0.69,0.88V59h0.54v-1.78
			c0-1.02-0.64-1.27-1.05-1.27c-0.49,0-0.84,0.28-0.98,0.56h-0.01l-0.03-0.49h-0.48c0.02,0.25,0.02,0.5,0.02,0.81V59z M22.58,59
			c-0.04-0.2-0.05-0.46-0.05-0.71v-1.11c0-0.6-0.22-1.22-1.13-1.22c-0.38,0-0.73,0.1-0.98,0.26l0.12,0.36
			c0.21-0.14,0.5-0.22,0.77-0.22c0.61,0,0.68,0.44,0.68,0.69v0.06c-1.15-0.01-1.79,0.39-1.79,1.11c0,0.43,0.31,0.85,0.91,0.85
			c0.42,0,0.74-0.21,0.91-0.44h0.02L22.09,59H22.58z M22.01,58c0,0.06-0.01,0.12-0.03,0.17c-0.09,0.25-0.33,0.5-0.72,0.5
			c-0.28,0-0.51-0.17-0.51-0.52c0-0.58,0.67-0.68,1.26-0.67V58z M25.7,54.64v1.78h-0.01c-0.14-0.24-0.44-0.46-0.9-0.46
			c-0.73,0-1.34,0.61-1.33,1.6c0,0.9,0.55,1.51,1.27,1.51c0.49,0,0.85-0.25,1.01-0.58h0.01L25.78,59h0.49
			c-0.02-0.2-0.02-0.5-0.02-0.77v-3.6H25.7z M25.7,57.76c0,0.09-0.01,0.16-0.02,0.23c-0.1,0.41-0.43,0.65-0.79,0.65
			c-0.58,0-0.88-0.5-0.88-1.1c0-0.66,0.33-1.15,0.89-1.15c0.41,0,0.7,0.28,0.78,0.63c0.02,0.07,0.02,0.16,0.02,0.23V57.76z
			 M29.81,57.62c0.01-0.06,0.02-0.14,0.02-0.25c0-0.55-0.26-1.4-1.23-1.4c-0.87,0-1.4,0.71-1.4,1.61c0,0.9,0.55,1.5,1.46,1.5
			c0.47,0,0.8-0.1,0.99-0.18l-0.09-0.39c-0.2,0.09-0.44,0.15-0.82,0.15c-0.54,0-1.01-0.3-1.02-1.03H29.81z M27.72,57.23
			c0.04-0.38,0.28-0.88,0.83-0.88c0.61,0,0.76,0.54,0.75,0.88H27.72z M30.77,59h0.54v-1.59c0-0.09,0.01-0.18,0.02-0.25
			c0.07-0.41,0.34-0.69,0.73-0.69c0.07,0,0.13,0.01,0.18,0.02v-0.51c-0.05-0.01-0.09-0.02-0.15-0.02c-0.36,0-0.69,0.25-0.82,0.65
			h-0.02l-0.02-0.58h-0.47c0.02,0.28,0.02,0.58,0.02,0.93V59z M33.58,54.74l-0.54,0.88h0.39l0.75-0.88H33.58z M33.61,59v-2.98h-0.54
			V59H33.61z M36.92,59c-0.04-0.2-0.05-0.46-0.05-0.71v-1.11c0-0.6-0.22-1.22-1.13-1.22c-0.38,0-0.73,0.1-0.98,0.26l0.12,0.36
			c0.21-0.14,0.5-0.22,0.77-0.22c0.61,0,0.68,0.44,0.68,0.69v0.06c-1.15-0.01-1.79,0.39-1.79,1.11c0,0.43,0.31,0.85,0.91,0.85
			c0.42,0,0.74-0.21,0.91-0.44h0.02L36.43,59H36.92z M36.35,58c0,0.06-0.01,0.12-0.03,0.17c-0.09,0.25-0.33,0.5-0.72,0.5
			c-0.28,0-0.51-0.17-0.51-0.52c0-0.58,0.67-0.68,1.26-0.67V58z M42.84,59c-0.25-0.26-0.46-0.5-0.68-0.73
			c0.31-0.36,0.49-0.88,0.6-1.53h-0.49c-0.08,0.52-0.21,0.92-0.4,1.21c-0.26-0.3-0.66-0.75-1.01-1.16v-0.02
			c0.66-0.33,0.91-0.67,0.91-1.11c0-0.54-0.4-0.88-0.92-0.88c-0.69,0-1.05,0.52-1.05,1.02c0,0.3,0.13,0.6,0.34,0.87v0.02
			c-0.47,0.26-0.81,0.65-0.81,1.21c0,0.62,0.47,1.16,1.27,1.16c0.46,0,0.85-0.14,1.21-0.47c0.16,0.17,0.27,0.29,0.39,0.41H42.84z
			 M40.7,58.67c-0.5,0-0.85-0.36-0.85-0.84c0-0.44,0.31-0.7,0.54-0.84c0.46,0.53,0.92,1.03,1.17,1.3
			C41.36,58.51,41.05,58.67,40.7,58.67z M40.81,55.16c0.34,0,0.48,0.28,0.48,0.54c0,0.35-0.27,0.57-0.69,0.81
			c-0.18-0.22-0.31-0.45-0.31-0.74C40.29,55.44,40.47,55.16,40.81,55.16z M47.19,58.49c-0.15,0.07-0.36,0.15-0.66,0.15
			c-0.59,0-1.03-0.42-1.03-1.11c0-0.62,0.37-1.13,1.05-1.13c0.3,0,0.5,0.07,0.63,0.14l0.12-0.42c-0.15-0.07-0.43-0.15-0.75-0.15
			c-0.97,0-1.6,0.66-1.6,1.58c0,0.91,0.58,1.52,1.48,1.52c0.4,0,0.71-0.1,0.85-0.17L47.19,58.49z M49.41,55.96
			c-0.82,0-1.48,0.58-1.48,1.58c0,0.94,0.62,1.53,1.43,1.53c0.72,0,1.48-0.48,1.48-1.58C50.84,56.58,50.26,55.96,49.41,55.96z
			 M49.39,56.37c0.64,0,0.89,0.64,0.89,1.14c0,0.67-0.39,1.16-0.9,1.16c-0.53,0-0.9-0.49-0.9-1.14
			C48.48,56.96,48.75,56.37,49.39,56.37z M51.79,59h0.54v-1.79c0-0.09,0.01-0.18,0.04-0.25c0.09-0.3,0.37-0.55,0.73-0.55
			c0.51,0,0.69,0.4,0.69,0.88V59h0.54v-1.78c0-1.02-0.64-1.27-1.05-1.27c-0.49,0-0.84,0.28-0.98,0.56h-0.01l-0.03-0.49h-0.48
			c0.02,0.25,0.02,0.5,0.02,0.81V59z M56.07,59v-2.56h0.72v-0.41h-0.72v-0.16c0-0.46,0.12-0.86,0.58-0.86
			c0.15,0,0.26,0.03,0.34,0.07l0.07-0.42c-0.1-0.04-0.27-0.09-0.46-0.09c-0.25,0-0.52,0.08-0.73,0.28
			c-0.25,0.24-0.34,0.62-0.34,1.04v0.14h-0.42v0.41h0.42V59H56.07z M57.91,54.85c-0.2,0-0.34,0.15-0.34,0.34
			c0,0.18,0.14,0.33,0.33,0.33c0.22,0,0.35-0.15,0.34-0.33C58.24,55,58.11,54.85,57.91,54.85z M58.18,59v-2.98h-0.54V59H58.18z
			 M59.47,55.31v0.71h-0.46v0.41h0.46v1.62c0,0.35,0.06,0.61,0.21,0.77c0.13,0.15,0.33,0.23,0.58,0.23c0.21,0,0.38-0.03,0.48-0.07
			l-0.02-0.41c-0.07,0.02-0.17,0.04-0.31,0.04c-0.3,0-0.41-0.21-0.41-0.58v-1.61h0.77v-0.41H60v-0.85L59.47,55.31z M64.01,57.62
			c0.01-0.06,0.02-0.14,0.02-0.25c0-0.55-0.26-1.4-1.23-1.4c-0.87,0-1.4,0.71-1.4,1.61c0,0.9,0.55,1.5,1.46,1.5
			c0.47,0,0.8-0.1,0.99-0.18l-0.09-0.39c-0.2,0.09-0.44,0.15-0.82,0.15c-0.54,0-1.01-0.3-1.02-1.03H64.01z M61.92,57.23
			c0.04-0.38,0.28-0.88,0.83-0.88c0.61,0,0.76,0.54,0.75,0.88H61.92z M64.97,59h0.54v-1.59c0-0.09,0.01-0.18,0.02-0.25
			c0.07-0.41,0.34-0.69,0.73-0.69c0.07,0,0.13,0.01,0.18,0.02v-0.51c-0.05-0.01-0.09-0.02-0.15-0.02c-0.36,0-0.69,0.25-0.82,0.65
			h-0.02l-0.02-0.58h-0.47c0.02,0.28,0.02,0.58,0.02,0.93V59z M67.78,54.74l-0.54,0.88h0.39l0.75-0.88H67.78z M67.81,59v-2.98h-0.54
			V59H67.81z M71.12,59c-0.04-0.2-0.05-0.46-0.05-0.71v-1.11c0-0.6-0.22-1.22-1.13-1.22c-0.38,0-0.73,0.1-0.98,0.26l0.12,0.36
			c0.21-0.14,0.5-0.22,0.77-0.22c0.61,0,0.68,0.44,0.68,0.69v0.06c-1.15-0.01-1.79,0.39-1.79,1.11c0,0.43,0.31,0.85,0.91,0.85
			c0.42,0,0.74-0.21,0.91-0.44h0.02L70.63,59H71.12z M70.55,58c0,0.06-0.01,0.12-0.03,0.17c-0.09,0.25-0.33,0.5-0.72,0.5
			c-0.28,0-0.51-0.17-0.51-0.52c0-0.58,0.67-0.68,1.26-0.67V58z"/>
		<path class="st1" d="M27.75,36.51c0,1.87-0.74,2.64-2.16,2.64h-1.15v-5.29h1.6C27.37,33.86,27.75,34.63,27.75,36.51z M15.73,33.86
			c-1.12,0-1.63,0.85-1.63,2.64v7.8c0,1.82,0.53,2.67,1.63,2.67c1.07,0,1.63-0.8,1.63-2.67v-7.8
			C17.36,34.66,16.83,33.86,15.73,33.86z M0,27.99v25.17h80V27.99H0z M10.87,32.87c0,0.55-0.41,0.99-0.92,0.99H6.09v5.18h2.85
			c0.51,0,0.92,0.44,0.92,0.99v0.74c0,0.55-0.41,0.99-0.92,0.99H6.09v6.94c0,0.55-0.43,0.99-0.92,0.99H4.46
			c-0.51,0-0.92-0.44-0.92-0.99V32.13c0-0.55,0.41-0.99,0.92-0.99h5.5c0.51,0,0.92,0.44,0.92,0.99V32.87z M19.91,44.3
			c0,2.18-0.53,3.44-1.32,4.3c-0.84,0.88-1.91,1.1-2.85,1.1c-0.92,0-1.99-0.22-2.83-1.1c-0.79-0.85-1.35-2.12-1.35-4.3v-7.8
			c0-3.47,1.4-5.37,4.17-5.37c2.8,0,4.17,1.87,4.17,5.37V44.3z M30.09,44.08v4.6c0,0.55-0.41,0.99-0.92,0.99h-0.71
			c-0.51,0-0.92-0.44-0.92-0.99v-4.6c0-1.38-0.71-2.15-1.96-2.15h-1.15v6.75c0,0.55-0.41,0.99-0.89,0.99h-0.71
			c-0.51,0-0.92-0.44-0.92-0.99V32.1c0-0.55,0.41-0.99,0.92-0.99h3.21c3.13,0,4.23,1.71,4.23,5.4c0,1.71-0.28,3.09-1.07,3.94
			c-0.08,0.08-0.13,0.14-0.2,0.22C29.73,41.52,30.09,42.65,30.09,44.08z M44.68,32.87c0,0.55-0.41,0.99-0.92,0.99h-3.89v5.18h3.21
			c0.51,0,0.92,0.44,0.92,0.99v0.74c0,0.55-0.41,0.99-0.92,0.99h-3.21v5.21h3.89c0.51,0,0.92,0.44,0.92,0.99v0.74
			c0,0.55-0.41,0.99-0.92,0.99h-5.5c-0.51,0-0.92-0.44-0.92-0.99V32.13c0-0.55,0.41-0.99,0.92-0.99h5.5c0.51,0,0.92,0.44,0.92,0.99
			V32.87z M53.43,48.71c0,0.55-0.41,0.99-0.92,0.99H47.1c-0.51,0-0.92-0.44-0.92-0.99V32.13c0-0.55,0.41-0.99,0.92-0.99h0.74
			c0.48,0,0.89,0.44,0.89,0.99v14.85h3.79c0.51,0,0.92,0.44,0.92,0.99V48.71z M57.33,48.71c0,0.55-0.43,0.99-0.92,0.99H55.7
			c-0.51,0-0.92-0.44-0.92-0.99V32.13c0-0.55,0.41-0.99,0.92-0.99h0.71c0.48,0,0.92,0.44,0.92,0.99V48.71z M67.46,36.89
			c0,0.55-0.41,0.99-0.92,0.99h-0.71c-0.51,0-0.92-0.44-0.92-0.99v-0.39c0-1.82-0.53-2.64-1.65-2.64c-1.07,0-1.65,0.63-1.65,2.07
			c0,1.4,1.25,2.48,2.49,3.53h-0.03c1.68,1.4,3.39,2.81,3.39,5.48c0,3.09-1.5,4.74-4.2,4.74c-2.8,0-4.2-1.76-4.2-5.37v-0.36
			c0-0.55,0.41-0.99,0.92-0.99h0.71c0.48,0,0.92,0.44,0.92,0.99v0.36c0,1.32,0.23,1.96,0.59,2.29c0.28,0.3,0.71,0.36,1.07,0.36
			c1.07,0,1.65-0.5,1.65-1.96c0-1.29-1.17-2.31-2.42-3.36v0.03c-1.68-1.43-3.44-2.92-3.44-5.65c0-3.11,1.5-4.9,4.2-4.9
			c2.75,0,4.2,1.9,4.2,5.4V36.89z M76.5,32.87c0,0.55-0.41,0.99-0.92,0.99h-3.89v5.18h3.21c0.51,0,0.92,0.44,0.92,0.99v0.74
			c0,0.55-0.41,0.99-0.92,0.99h-3.21v5.21h3.89c0.51,0,0.92,0.44,0.92,0.99v0.74c0,0.55-0.41,0.99-0.92,0.99h-5.5
			c-0.51,0-0.92-0.44-0.92-0.99V32.13c0-0.55,0.41-0.99,0.92-0.99h5.5c0.51,0,0.92,0.44,0.92,0.99V32.87z"/>
	</g>
</g>
</svg>
