<?xml version="1.0" encoding="utf-8"?>
<!-- Generator: Adobe Illustrator 26.0.0, SVG Export Plug-In . SVG Version: 6.00 Build 0)  -->
<svg version="1.1" id="Capa_1" xmlns="http://www.w3.org/2000/svg" xmlns:xlink="http://www.w3.org/1999/xlink" x="0px" y="0px"
	 viewBox="0 0 20 20" style="enable-background:new 0 0 20 20;" xml:space="preserve">
<style type="text/css">
	.st0{opacity:0.8;}
	.st1{fill:#FFFBF5;}
</style>
<g class="st0">
	<path class="st1" d="M0.5,10.01c0-2.34,0-4.69,0-7.03c0-1.48,1-2.48,2.48-2.48c4.67,0,9.35,0,14.02,0c1.48,0,2.49,1,2.49,2.48
		c0,4.69,0,9.37,0,14.06c0,1.45-1.01,2.46-2.47,2.46c-1.04,0-2.07-0.01-3.11,0.01c-0.3,0-0.41-0.1-0.4-0.4
		c0.01-1.92,0.01-3.85,0-5.77c0-0.31,0.1-0.42,0.4-0.4c0.36,0.02,0.72-0.01,1.07,0.01c0.22,0.01,0.33-0.08,0.41-0.28
		c0.3-0.77,0.61-1.54,0.92-2.3c0.1-0.25,0.04-0.33-0.22-0.33c-0.74,0.01-1.48-0.01-2.22,0.01c-0.27,0-0.37-0.09-0.37-0.37
		c0.01-0.67,0-1.33,0.01-2c0.01-0.46,0.19-0.64,0.66-0.65C14.64,7,15.1,7,15.56,7.01c0.23,0,0.34-0.06,0.34-0.31
		c-0.01-0.76-0.01-1.53,0-2.29c0-0.22-0.08-0.31-0.3-0.31C14.73,4.13,13.86,4.07,13,4.17c-1.42,0.17-2.76,1.52-2.91,2.95
		C10,7.95,10.03,8.79,10.03,9.63c0,0.31-0.1,0.41-0.41,0.4c-0.54-0.02-1.09,0-1.63-0.01c-0.26-0.01-0.35,0.09-0.34,0.34
		c0.01,0.74,0.01,1.48,0,2.22c-0.01,0.29,0.12,0.35,0.38,0.35c0.55-0.01,1.11,0,1.66-0.01c0.23,0,0.33,0.08,0.33,0.32
		c-0.01,1.97,0,3.95,0,5.92c0,0.23-0.08,0.33-0.32,0.33C7.35,19.49,5,19.51,2.64,19.48c-1.14-0.01-2.13-1.12-2.14-2.3
		C0.5,14.79,0.5,12.4,0.5,10.01z"/>
</g>
</svg>
