<?xml version="1.0" encoding="utf-8"?>
<!-- Generator: Adobe Illustrator 26.0.0, SVG Export Plug-In . SVG Version: 6.00 Build 0)  -->
<svg version="1.1" id="Capa_1" xmlns="http://www.w3.org/2000/svg" xmlns:xlink="http://www.w3.org/1999/xlink" x="0px" y="0px"
	 viewBox="0 0 50 50" style="enable-background:new 0 0 50 50;" xml:space="preserve">
<style type="text/css">
	.st0{fill:#3E2913;}
	.st1{fill:#F47F20;}
	.st2{fill:#FFFBF5;}
</style>
<g>
	<circle class="st0" cx="24.94" cy="48.46" r="1.54"/>
	<g>
		<path class="st1" d="M24.98,47.97c-0.96,0-1.88-0.56-2.81-1.71c-3.46-4.29-6.91-9.04-8.76-14.69c-1.53-4.69-0.99-9.34,1.48-12.74
			c2.27-3.13,5.85-4.85,10.08-4.85h0.11c4.01,0.03,7.61,1.81,9.86,4.88c2.45,3.33,3.08,7.78,1.74,12.2
			c-1.86,6.11-5.68,11.15-9.11,15.4C26.76,47.47,25.91,47.97,24.98,47.97L24.98,47.97z M24.84,22.89c-2.01,0-3.22,1.23-3.31,3.38
			c-0.05,1.16,0.24,2.11,0.83,2.73c0.58,0.62,1.48,0.96,2.61,0.98l0.1,0c2.45,0,3.21-1.81,3.4-3.36c-0.11-1.69-0.82-3.67-3.52-3.73
			L24.84,22.89z"/>
		<path class="st2" d="M24.98,15.02c0.03,0,0.07,0,0.1,0c8.04,0.06,13.13,7.45,10.61,15.72c-1.74,5.7-5.22,10.46-8.92,15.05
			c-0.63,0.78-1.22,1.13-1.79,1.13c-0.68,0-1.33-0.49-1.99-1.32c-3.54-4.38-6.81-8.94-8.58-14.36
			C11.57,22.53,16.51,15.02,24.98,15.02 M25.07,31.03c2.58,0,4.14-1.66,4.45-4.38c-0.15-2.89-1.7-4.74-4.55-4.8
			c-0.04,0-0.09,0-0.13,0c-2.59,0-4.24,1.67-4.35,4.38c-0.12,2.99,1.62,4.74,4.46,4.8C24.99,31.02,25.03,31.03,25.07,31.03
			 M24.98,12.93c-4.57,0-8.45,1.88-10.92,5.28c-2.67,3.68-3.27,8.67-1.63,13.68c1.89,5.81,5.41,10.66,8.94,15.02
			c0.42,0.52,1.69,2.09,3.62,2.09c1.24,0,2.39-0.64,3.41-1.9c3.49-4.32,7.37-9.46,9.29-15.75c1.44-4.74,0.75-9.52-1.89-13.12
			c-2.45-3.34-6.35-5.27-10.7-5.3L24.98,12.93L24.98,12.93z M25.07,28.93l-0.08,0c-0.58-0.01-1.38-0.13-1.87-0.65
			c-0.49-0.53-0.57-1.36-0.54-1.97c0.1-2.38,1.73-2.38,2.26-2.38l0.09,0c1.07,0.02,2.31,0.35,2.49,2.65
			C27.13,28.66,26.01,28.93,25.07,28.93L25.07,28.93z"/>
	</g>
	<g>
		<g>
			<rect x="3.65" class="st2" width="42.7" height="13.44"/>
		</g>
		<path class="st0" d="M18.46,4.54c0,1-0.39,1.41-1.15,1.41H16.7V3.13h0.86C18.26,3.13,18.46,3.54,18.46,4.54z M12.05,3.13
			c-0.6,0-0.87,0.46-0.87,1.41v4.16c0,0.97,0.29,1.43,0.87,1.43c0.57,0,0.87-0.43,0.87-1.43V4.54C12.92,3.56,12.63,3.13,12.05,3.13z
			 M3.65,0v13.44h42.7V0H3.65z M9.45,2.6c0,0.29-0.22,0.53-0.49,0.53H6.9V5.9h1.52c0.27,0,0.49,0.24,0.49,0.53v0.4
			c0,0.29-0.22,0.53-0.49,0.53H6.9v3.71c0,0.29-0.23,0.53-0.49,0.53H6.03c-0.27,0-0.49-0.24-0.49-0.53V2.21
			c0-0.29,0.22-0.53,0.49-0.53h2.93c0.27,0,0.49,0.24,0.49,0.53V2.6z M14.28,8.71c0,1.16-0.29,1.84-0.71,2.29
			c-0.45,0.47-1.02,0.59-1.52,0.59c-0.49,0-1.06-0.12-1.51-0.59c-0.42-0.46-0.72-1.13-0.72-2.29V4.54c0-1.85,0.75-2.87,2.23-2.87
			c1.49,0,2.23,1,2.23,2.87V8.71z M19.71,8.59v2.46c0,0.29-0.22,0.53-0.49,0.53h-0.38c-0.27,0-0.49-0.24-0.49-0.53V8.59
			c0-0.74-0.38-1.15-1.05-1.15H16.7v3.6c0,0.29-0.22,0.53-0.48,0.53h-0.38c-0.27,0-0.49-0.24-0.49-0.53V2.19
			c0-0.29,0.22-0.53,0.49-0.53h1.71c1.67,0,2.26,0.91,2.26,2.88c0,0.91-0.15,1.65-0.57,2.1c-0.04,0.04-0.07,0.07-0.11,0.12
			C19.52,7.22,19.71,7.82,19.71,8.59z M27.5,2.6c0,0.29-0.22,0.53-0.49,0.53h-2.08V5.9h1.71c0.27,0,0.49,0.24,0.49,0.53v0.4
			c0,0.29-0.22,0.53-0.49,0.53h-1.71v2.78h2.08c0.27,0,0.49,0.24,0.49,0.53v0.4c0,0.29-0.22,0.53-0.49,0.53h-2.93
			c-0.27,0-0.49-0.24-0.49-0.53V2.21c0-0.29,0.22-0.53,0.49-0.53h2.93c0.27,0,0.49,0.24,0.49,0.53V2.6z M32.17,11.06
			c0,0.29-0.22,0.53-0.49,0.53h-2.89c-0.27,0-0.49-0.24-0.49-0.53V2.21c0-0.29,0.22-0.53,0.49-0.53h0.39c0.26,0,0.48,0.24,0.48,0.53
			v7.92h2.02c0.27,0,0.49,0.24,0.49,0.53V11.06z M34.25,11.06c0,0.29-0.23,0.53-0.49,0.53h-0.38c-0.27,0-0.49-0.24-0.49-0.53V2.21
			c0-0.29,0.22-0.53,0.49-0.53h0.38c0.26,0,0.49,0.24,0.49,0.53V11.06z M39.65,4.75c0,0.29-0.22,0.53-0.49,0.53h-0.38
			c-0.27,0-0.49-0.24-0.49-0.53V4.54c0-0.97-0.29-1.41-0.88-1.41c-0.57,0-0.88,0.34-0.88,1.1c0,0.75,0.67,1.32,1.33,1.88h-0.01
			c0.9,0.75,1.81,1.5,1.81,2.93c0,1.65-0.8,2.53-2.24,2.53c-1.49,0-2.24-0.94-2.24-2.87V8.51c0-0.29,0.22-0.53,0.49-0.53h0.38
			c0.26,0,0.49,0.24,0.49,0.53v0.19c0,0.71,0.12,1.04,0.31,1.22c0.15,0.16,0.38,0.19,0.57,0.19c0.57,0,0.88-0.26,0.88-1.04
			c0-0.69-0.62-1.23-1.29-1.79v0.01c-0.9-0.76-1.83-1.56-1.83-3.01c0-1.66,0.8-2.62,2.24-2.62c1.47,0,2.24,1.01,2.24,2.88V4.75z
			 M44.48,2.6c0,0.29-0.22,0.53-0.49,0.53h-2.08V5.9h1.71c0.27,0,0.49,0.24,0.49,0.53v0.4c0,0.29-0.22,0.53-0.49,0.53h-1.71v2.78
			h2.08c0.27,0,0.49,0.24,0.49,0.53v0.4c0,0.29-0.22,0.53-0.49,0.53h-2.93c-0.27,0-0.49-0.24-0.49-0.53V2.21
			c0-0.29,0.22-0.53,0.49-0.53h2.93c0.27,0,0.49,0.24,0.49,0.53V2.6z"/>
	</g>
</g>
</svg>
