<?xml version="1.0" encoding="utf-8"?>
<!-- Generator: Adobe Illustrator 26.0.0, SVG Export Plug-In . SVG Version: 6.00 Build 0)  -->
<svg version="1.1" id="Capa_1" xmlns="http://www.w3.org/2000/svg" xmlns:xlink="http://www.w3.org/1999/xlink" x="0px" y="0px"
	 viewBox="0 0 20 20" style="enable-background:new 0 0 20 20;" xml:space="preserve">
<style type="text/css">
	.st0{opacity:0.8;}
	.st1{fill:#FFFBF5;}
</style>
<g class="st0">
	<g>
		<path class="st1" d="M10.12,19.39c-1.58,0-2.95-0.31-4.25-0.95c-0.3-0.15-0.56-0.15-0.87-0.06c-1.33,0.36-2.67,0.71-4.01,1.06
			c-0.5,0.13-0.53,0.09-0.4-0.41c0.37-1.35,0.73-2.69,1.11-4.04c0.07-0.23,0.05-0.43-0.06-0.64c-0.74-1.36-1.1-2.83-1.1-4.36
			c0-2.31,0.74-4.37,2.24-6.14c1.62-1.92,3.7-3.07,6.19-3.3c3.95-0.35,7.09,1.18,9.14,4.58c3.46,5.71-0.06,13.1-6.67,14.16
			C10.97,19.36,10.48,19.42,10.12,19.39z M9.99,17.66c0.3,0,0.61,0.03,0.91,0c4.41-0.56,7.4-4.5,6.78-8.89
			c-0.67-4.66-5.48-7.68-9.96-6.25c-4.89,1.57-6.98,7.11-4.32,11.5c0.16,0.26,0.2,0.49,0.11,0.78c-0.2,0.68-0.37,1.37-0.57,2.05
			c-0.08,0.27-0.05,0.36,0.26,0.27c0.71-0.2,1.43-0.37,2.14-0.57c0.27-0.08,0.5-0.06,0.75,0.09C7.28,17.35,8.58,17.71,9.99,17.66z"
			/>
		<path class="st1" d="M12.45,14.5c-1.11-0.07-2.13-0.47-3.06-1.05c-1.76-1.09-3.14-2.57-3.98-4.48C4.93,7.86,5.12,6.8,5.96,5.9
			C6.55,5.27,7.47,5.44,7.8,6.23C7.97,6.65,8.13,7.09,8.33,7.5c0.18,0.38,0.14,0.69-0.12,1.02c-0.62,0.81-0.6,0.81,0.02,1.63
			c0.67,0.88,1.52,1.52,2.52,1.98c0.32,0.14,0.57,0.15,0.79-0.17c0.16-0.24,0.37-0.45,0.54-0.68c0.17-0.23,0.37-0.29,0.62-0.17
			c0.62,0.29,1.24,0.58,1.85,0.88c0.15,0.07,0.25,0.19,0.25,0.37c0.01,0.62-0.13,1.18-0.66,1.57C13.64,14.3,13.1,14.55,12.45,14.5z"
			/>
	</g>
</g>
</svg>
