<?xml version="1.0" encoding="utf-8"?>
<!-- Generator: Adobe Illustrator 26.0.0, SVG Export Plug-In . SVG Version: 6.00 Build 0)  -->
<svg version="1.1" id="Capa_1" xmlns="http://www.w3.org/2000/svg" xmlns:xlink="http://www.w3.org/1999/xlink" x="0px" y="0px"
	 viewBox="0 0 20 20" style="enable-background:new 0 0 20 20;" xml:space="preserve">
<style type="text/css">
	.st0{opacity:0.8;}
	.st1{fill:#FFFBF5}
</style>
<g class="st0">
	<g>
		<path class="st1" d="M10,16.1c-2.48,0-4.95,0-7.43,0c-1.22,0-2.04-0.74-2.05-1.97c-0.03-2.74-0.03-5.48,0-8.22
			C0.54,4.64,1.35,3.9,2.63,3.9c4.91,0,9.83,0,14.74,0c1.29,0,2.1,0.76,2.11,2.05c0.02,2.7,0.03,5.4,0,8.1
			c-0.01,1.34-0.79,2.05-2.13,2.05C14.9,16.1,12.45,16.1,10,16.1z M3,5.2C2.99,5.33,3.07,5.37,3.13,5.42C5.23,7.21,7.33,9,9.44,10.8
			c0.44,0.37,0.7,0.36,1.15-0.02c1.92-1.64,3.85-3.27,5.77-4.92c0.23-0.2,0.51-0.35,0.68-0.66C12.33,5.2,7.66,5.2,3,5.2z
			 M17.18,14.86c-1.58-1.34-3.06-2.59-4.54-3.86c-0.19-0.16-0.3-0.13-0.46,0.02c-0.3,0.28-0.62,0.53-0.93,0.79
			c-0.78,0.64-1.7,0.64-2.49-0.01c-0.31-0.25-0.62-0.49-0.9-0.77c-0.2-0.19-0.33-0.18-0.52,0c-1.01,0.87-2.02,1.73-3.04,2.59
			c-0.46,0.39-0.92,0.79-1.45,1.24C7.65,14.86,12.36,14.86,17.18,14.86z M1.77,9.99c0,0.07,0,0.13,0,0.2c0,1.19,0,2.37,0,3.56
			c0,0.1-0.04,0.23,0.09,0.27c0.1,0.03,0.16-0.07,0.23-0.13c0.29-0.25,0.58-0.5,0.87-0.74c1.14-0.97,2.29-1.95,3.43-2.92
			c0.14-0.12,0.27-0.21,0.05-0.39C5,8.61,3.56,7.38,2.12,6.15C2.04,6.08,1.92,5.98,1.86,6c-0.14,0.04-0.08,0.2-0.08,0.31
			C1.77,7.54,1.77,8.76,1.77,9.99z M18.23,9.99c0-1.21,0-2.42,0-3.63c0-0.12,0.07-0.3-0.08-0.35c-0.11-0.04-0.2,0.1-0.29,0.17
			c-1.36,1.16-2.72,2.32-4.08,3.49c-0.42,0.36-0.41,0.36,0.01,0.72c1.36,1.15,2.71,2.3,4.06,3.45c0.09,0.07,0.17,0.22,0.29,0.18
			c0.16-0.05,0.09-0.23,0.09-0.35C18.23,12.44,18.23,11.21,18.23,9.99z"/>
	</g>
</g>
</svg>
