<?xml version="1.0" encoding="utf-8"?>
<!-- Generator: Adobe Illustrator 26.0.0, SVG Export Plug-In . SVG Version: 6.00 Build 0)  -->
<svg version="1.1" id="Capa_1" xmlns="http://www.w3.org/2000/svg" xmlns:xlink="http://www.w3.org/1999/xlink" x="0px" y="0px"
	 viewBox="0 0 20 20" style="enable-background:new 0 0 20 20;" xml:space="preserve">
<style type="text/css">
	.st0{opacity:0.8;fill:#FFFBF5;stroke:#FFFBF5; stroke-width:1;}
</style>
<path class="st0" d="M9.95,0.51c1.37-0.05,2.61,0.22,3.75,0.85c1.85,1.03,2.71,2.68,2.85,4.75c0.14,2.1-0.47,4.04-1.35,5.9
	c-1.24,2.64-2.9,5.01-4.8,7.22c-0.28,0.33-0.52,0.35-0.78,0.05c-2.27-2.66-4.24-5.5-5.47-8.79c-0.6-1.61-0.91-3.28-0.64-5.01
	C3.9,2.98,5.38,1.45,7.79,0.77C8.52,0.56,9.26,0.47,9.95,0.51z M15.86,6.6c-0.02-0.21-0.04-0.52-0.08-0.83
	c-0.21-1.7-0.99-3.04-2.56-3.83c-1.33-0.67-2.75-0.85-4.21-0.66C5.58,1.73,4.13,3.82,4.15,6.85c0.01,1.26,0.33,2.48,0.8,3.65
	c1.15,2.9,2.88,5.45,4.84,7.85c0.22,0.26,0.31,0.12,0.46-0.05c1.69-2.06,3.18-4.24,4.32-6.66C15.3,10.07,15.81,8.45,15.86,6.6z
	 M9.97,10.35c-2.03,0-3.6-1.6-3.59-3.65c0.01-2.02,1.61-3.58,3.67-3.58c2,0.01,3.57,1.6,3.57,3.63
	C13.62,8.79,12.02,10.35,9.97,10.35z M12.92,6.76c0.02-1.56-1.32-2.92-2.91-2.93C8.45,3.81,7.13,5.11,7.08,6.7
	C7.04,8.25,8.37,9.61,9.97,9.65C11.53,9.69,12.89,8.34,12.92,6.76z"/>
</svg>
