<?xml version="1.0" encoding="utf-8"?>
<!-- Generator: Adobe Illustrator 27.2.0, SVG Export Plug-In . SVG Version: 6.00 Build 0)  -->
<svg version="1.1" id="Capa_1" xmlns="http://www.w3.org/2000/svg" xmlns:xlink="http://www.w3.org/1999/xlink" x="0px" y="0px"
	 viewBox="0 0 50 50" style="enable-background:new 0 0 50 50;" xml:space="preserve">
<style type="text/css">
	.st0{fill:#EAEEEF;}
	.st1{fill:#FFFFFF;}
	.st2{fill:#4DAF50;}
</style>
<g>
	<path class="st0" d="M49.7,21.1c-0.7-5.8-3.6-11.1-8-15c-4.4-3.9-10-6-15.7-6c-0.1,0-0.2,0-0.3,0C19.2,0,13.6,2.3,9,6.7
		c-4.1,3.9-6.7,9.2-7.3,14.8c-0.5,5.1,0.6,10.2,3.1,14.7c-0.1,0.4-0.3,0.8-0.4,1.1c-0.1,0.3-0.2,0.6-0.3,0.9l0,0L4,38.4
		c0,0.1,0,0.1-0.1,0.2l-0.6,1.9c-0.1,0.3-0.2,0.5-0.3,0.8L0.1,50l8.6-2.7c0.4-0.1,0.8-0.2,1-0.3l0.3-0.1l0.7-0.2
		c0.8-0.2,1.5-0.5,2.3-0.7l0.1,0l0,0c0.4-0.1,0.9-0.3,1.3-0.4c3.5,1.9,7.2,2.8,11.2,2.8c0,0,0,0,0,0c1.1,0,2.1-0.1,3.2-0.2
		c6.3-0.8,12-4,16-9.2C48.7,33.8,50.5,27.5,49.7,21.1z"/>
	<path class="st1" d="M25.7,4.6c9.6-0.1,18.2,7.2,19.5,17.1c1.4,10.7-6.2,20.6-16.9,21.9c-4.5,0.6-8.7-0.3-12.6-2.6
		c-0.5-0.3-0.9-0.4-1.4-0.2c-2,0.7-4,1.3-6,1.9c-0.2,0.1-0.5,0.3-0.6,0.1c-0.2-0.2,0-0.4,0.1-0.6c0.6-1.9,1.3-3.9,2-5.8
		c0.2-0.5,0.1-0.9-0.2-1.3C4.2,27,5.2,16.7,12.2,10C15.9,6.4,20.4,4.6,25.7,4.6z"/>
	<path class="st2" d="M45.1,21.6c-1.3-9.9-9.9-17.2-19.5-17.1c-5.2,0-9.8,1.8-13.5,5.4C5.2,16.7,4.2,27,9.4,35
		c0.3,0.4,0.4,0.8,0.2,1.3c-0.7,1.9-1.3,3.8-2,5.8c-0.1,0.2-0.3,0.5-0.1,0.6c0.2,0.2,0.4,0,0.6-0.1c2-0.6,4-1.3,6-1.9
		c0.5-0.2,0.9-0.1,1.4,0.2c3.9,2.3,8.1,3.2,12.6,2.6C38.9,42.2,46.5,32.3,45.1,21.6z M38.6,31c-0.4,3-2.7,4.9-6.7,4.9
		c-1.4,0-3.4-0.8-5.4-1.7c-5.9-2.6-9.9-7.1-12.6-12.8c-1.4-2.9-0.8-6.1,1.3-8.2c1-1,2.2-1,3.5-0.8c0.5,0.1,0.7,0.5,0.9,0.9
		c0.6,1.5,1.2,2.9,1.8,4.4c0.4,0.8,0.3,1.5-0.3,2.2c-0.2,0.2-0.4,0.4-0.6,0.6c-1.2,1.3-1.2,1.5-0.2,3c1.8,2.7,4.1,4.8,7.1,6.2
		c1.8,0.8,2.2,0.7,3.3-0.8c0,0,0.1-0.1,0.1-0.1c1.3-1.9,1.3-2.1,3.8-0.9c1,0.5,2.1,1,3.1,1.5C38.5,29.7,38.7,30.2,38.6,31z"/>
</g>
</svg>
