<?xml version="1.0" encoding="utf-8"?>
<!-- Generator: Adobe Illustrator 26.0.0, SVG Export Plug-In . SVG Version: 6.00 Build 0)  -->
<svg version="1.1" id="Capa_1" xmlns="http://www.w3.org/2000/svg" xmlns:xlink="http://www.w3.org/1999/xlink" x="0px" y="0px"
	 viewBox="0 0 20 20" style="enable-background:new 0 0 20 20;" xml:space="preserve">
<style type="text/css">
	.st0{opacity:0.8;fill:#FFFBF5;}
</style>
<path class="st0" d="M19.5,10c0,1.39,0,2.76,0,4.15c-0.01,3.07-2.27,5.33-5.35,5.34c-2.76,0-5.54,0-8.3,0
	c-3.07,0-5.34-2.27-5.35-5.34c0-2.76,0-5.54,0-8.3C0.51,2.78,2.78,0.51,5.85,0.5c2.76,0,5.54,0,8.3,0c3.07,0,5.33,2.27,5.34,5.35
	C19.49,7.24,19.49,8.62,19.5,10L19.5,10z M15.2,9.99c0-2.88-2.35-5.2-5.22-5.19C7.11,4.82,4.8,7.14,4.79,10
	c0,2.88,2.33,5.21,5.21,5.2C12.88,15.19,15.2,12.85,15.2,9.99L15.2,9.99z M15.5,6.06c0.86,0.01,1.59-0.71,1.6-1.58
	c0-0.86-0.73-1.6-1.59-1.59c-0.85,0-1.56,0.71-1.58,1.56C13.91,5.31,14.64,6.05,15.5,6.06z M10.02,6.62c-1.87,0-3.4,1.51-3.41,3.37
	C6.6,11.87,8.12,13.39,10,13.39c1.87,0,3.38-1.51,3.39-3.38C13.39,8.14,11.88,6.62,10.02,6.62z"/>
</svg>
