<?xml version="1.0" encoding="utf-8"?>
<!-- Generator: Adobe Illustrator 26.0.0, SVG Export Plug-In . SVG Version: 6.00 Build 0)  -->
<svg version="1.1" id="Capa_1" xmlns="http://www.w3.org/2000/svg" xmlns:xlink="http://www.w3.org/1999/xlink" x="0px" y="0px"
	 viewBox="0 0 20 20" style="enable-background:new 0 0 20 20;" xml:space="preserve">
<style type="text/css">
	.st0{opacity:0.8;}
	.st1{fill:#FFFBF5;}
</style>
<g class="st0">
	<path class="st1" d="M10.04,0.5c2.48,0,4.96,0,7.43,0c1.24,0,2.03,0.79,2.03,2.04c0,4.98,0,9.96,0,14.94c0,1.22-0.8,2.02-2.01,2.02
		c-4.99,0-9.99,0-14.98,0c-1.21,0-2.01-0.8-2.01-2.02c0-4.99,0-9.99,0-14.98c0-1.19,0.8-2,1.99-2C5.01,0.5,7.52,0.5,10.04,0.5z
		 M8.16,12.36c0,1.26,0.01,2.52-0.01,3.77c0,0.34,0.11,0.45,0.45,0.44c0.59-0.02,1.18-0.01,1.78-0.01c0.5,0,0.5,0,0.5-0.49
		c0-1.18,0-2.37,0-3.55c0-0.39-0.02-0.79,0.06-1.18c0.13-0.68,0.77-1.22,1.44-1.21c0.67,0.01,1.29,0.54,1.41,1.2
		c0.04,0.24,0.06,0.49,0.06,0.74c0.01,1.36,0.01,2.71,0,4.07c0,0.32,0.11,0.43,0.43,0.43c0.63-0.02,1.26-0.02,1.89,0
		c0.34,0.01,0.42-0.12,0.42-0.44c-0.01-1.65-0.01-3.31-0.01-4.96c0-0.26-0.03-0.52-0.1-0.77c-0.52-2.03-3.16-3.39-5.06-1.65
		c-0.15,0.14-0.29,0.45-0.44,0.39c-0.21-0.09-0.09-0.4-0.09-0.61c0-0.29-0.1-0.4-0.39-0.39c-0.64,0.01-1.28,0.02-1.92,0
		C8.24,8.15,8.15,8.27,8.16,8.59C8.17,9.85,8.16,11.11,8.16,12.36z M3.43,12.37c0,1.24,0.01,2.49-0.01,3.73
		c0,0.34,0.08,0.49,0.45,0.48c0.63-0.03,1.26-0.02,1.89,0c0.28,0.01,0.4-0.09,0.39-0.38c-0.01-2.55-0.01-5.1,0-7.65
		c0-0.3-0.12-0.39-0.4-0.38c-0.63,0.01-1.26,0.02-1.89,0C3.53,8.15,3.42,8.25,3.42,8.6C3.44,9.85,3.43,11.11,3.43,12.37z M4.8,6.43
		c0.93,0,1.63-0.71,1.63-1.64c0-0.94-0.72-1.66-1.67-1.65C3.86,3.15,3.13,3.9,3.14,4.81C3.15,5.73,3.87,6.44,4.8,6.43z"/>
</g>
</svg>
