<?xml version="1.0" encoding="utf-8"?>
<!-- Generator: Adobe Illustrator 26.0.0, SVG Export Plug-In . SVG Version: 6.00 Build 0)  -->
<svg version="1.1" id="Capa_1" xmlns="http://www.w3.org/2000/svg" xmlns:xlink="http://www.w3.org/1999/xlink" x="0px" y="0px"
	 viewBox="0 0 125 125" style="enable-background:new 0 0 125 125;" xml:space="preserve">
<style type="text/css">
	.st0{fill:#F47F20;}
	.st1{fill:#FFFBF5;}
</style>
<g>
	<path class="st0" d="M61.89,17.08c0.38,1.83,2.27,3.04,4.22,2.7c0.94-0.17,1.75-0.67,2.29-1.42c0.53-0.75,0.73-1.65,0.54-2.53v0
		c-0.21-1-0.93-1.85-1.84-2.16c-0.5-0.17-1-0.1-1.47,0.1c0,0.01,0,0.02-0.01,0.07c-0.01,0.05-0.04,0.13-0.1,0.22
		c-0.11,0.18-0.34,0.38-0.67,0.48c-0.32,0.09-0.62,0.07-0.82,0.03c-0.2-0.04-0.33-0.08-0.33-0.08s0.13-0.03,0.32-0.07
		c0.14-0.03,0.31-0.06,0.49-0.11c-0.08-0.06-0.12-0.15-0.14-0.24c-0.73-0.03-1.37,0.19-1.84,0.64
		C61.94,15.29,61.7,16.17,61.89,17.08z M65.39,13.96c-0.06,0.04-0.14,0.09-0.23,0.13c0.01-0.02,0.02-0.07,0.04-0.14
		c0.12-0.08,0.26-0.1,0.38-0.15C65.57,13.81,65.52,13.87,65.39,13.96z"/>
	<g>
		<path class="st1" d="M119.11,86.44l1,0c-11.24,27.42-41.02,43.57-70.85,36.78C29.43,118.71,13.43,104.48,6,86.79l1,0
			c7.4,17.34,22.71,31.04,42.46,35.54C78.72,128.98,107.92,113.24,119.11,86.44z M50.07,119.82c-18.53-4.22-32.97-16.91-40.17-33.06
			l-0.55,0c7.19,16.3,22.2,29.36,40.6,33.55c27.98,6.37,55.92-8.55,66.84-34.04l-0.55,0C105.36,111.43,77.74,126.12,50.07,119.82z
			 M119.27,35.76C111.15,18.48,95.08,5.22,74.94,1.35C44.9-4.42,15.68,12.72,5.38,40.51l1-0.04C16.65,13.31,45.3-3.41,74.77,2.26
			c19.72,3.79,35.38,16.76,43.43,33.63c0.07,0.15,1.66,3.6,1.96,4.46l1.08-0.02C121.17,40.17,119.35,35.92,119.27,35.76z
			 M117.71,40.31c-0.18-0.71-1.72-4.02-1.76-4.09c-7.81-16.03-22.8-28.33-41.62-31.95C46.16-1.14,18.74,14.71,8.69,40.56l0.55-0.02
			c10.03-25.5,37.14-41.12,65-35.76c18.6,3.58,33.43,15.71,41.19,31.53c0.02,0.05,1.41,3.04,1.71,4.01H117.71z M44.41,24.95
			c-0.06-0.03-0.08-0.04-0.08-0.04S44.36,24.92,44.41,24.95c0.06,0.02,0.15,0.05,0.26,0.08c0.23,0.07,0.58,0.15,1.04,0.15
			c0.45,0,1.01-0.08,1.57-0.36c0.28-0.14,0.57-0.32,0.92-0.48c0.17-0.08,0.37-0.15,0.59-0.19c0.22-0.04,0.44-0.04,0.66-0.01
			c0.44,0.05,0.87,0.19,1.29,0.27c0.41,0.09,0.85,0.1,1.31,0.04c0.91-0.11,1.85-0.47,2.87-0.86c0.26-0.1,0.54-0.19,0.86-0.24
			c0.31-0.06,0.68-0.04,0.99,0.03c0.64,0.15,1.16,0.45,1.65,0.57c0.49,0.13,1.03,0.08,1.58-0.05c0.56-0.14,1.12-0.35,1.73-0.55
			c0.61-0.2,1.25-0.38,1.94-0.4c0.7-0.02,1.34,0.15,1.91,0.32c0.58,0.17,1.12,0.35,1.63,0.43c0.51,0.08,0.99,0.05,1.41-0.15
			c0.43-0.2,0.82-0.54,1.34-0.8c0.25-0.13,0.56-0.22,0.87-0.22c0.32,0,0.61,0.1,0.84,0.21c0.47,0.23,0.83,0.51,1.2,0.59
			c0.35,0.1,0.7-0.04,1.06-0.22c0.35-0.18,0.72-0.4,1.16-0.43c0.22-0.02,0.43,0.03,0.6,0.09c0.18,0.06,0.33,0.13,0.48,0.17
			c0.6,0.2,1.17,0.26,1.62,0.29c0.46,0.02,0.81,0,1.05-0.04c0.12-0.02,0.21-0.04,0.27-0.05c0.06-0.01,0.09-0.02,0.09-0.02
			s-0.03,0.01-0.09,0.03c-0.06,0.02-0.15,0.05-0.26,0.08c-0.24,0.06-0.59,0.12-1.06,0.13c-0.47,0.01-1.04-0.01-1.7-0.17
			c-0.33-0.08-0.65-0.23-0.96-0.18c-0.31,0.04-0.62,0.24-0.98,0.45c-0.18,0.1-0.37,0.21-0.61,0.29c-0.23,0.08-0.52,0.1-0.78,0.05
			c-0.53-0.11-0.93-0.4-1.33-0.56c-0.41-0.18-0.76-0.17-1.16,0.06c-0.4,0.21-0.78,0.57-1.31,0.85c-0.55,0.29-1.24,0.35-1.85,0.27
			c-0.62-0.08-1.19-0.27-1.75-0.42c-0.56-0.15-1.11-0.29-1.65-0.26c-0.54,0.01-1.11,0.18-1.68,0.36c-0.58,0.19-1.17,0.41-1.8,0.56
			c-0.63,0.14-1.34,0.21-2,0.02c-0.65-0.18-1.15-0.49-1.62-0.6c-0.24-0.06-0.45-0.07-0.69-0.04c-0.24,0.03-0.48,0.1-0.73,0.18
			c-1.01,0.34-2.03,0.7-3.06,0.77c-0.51,0.04-1.02,0-1.49-0.13c-0.46-0.12-0.85-0.28-1.23-0.34c-0.75-0.17-1.37,0.27-1.99,0.52
			c-0.63,0.25-1.23,0.29-1.69,0.25c-0.47-0.04-0.82-0.15-1.04-0.25C44.55,25.02,44.46,24.98,44.41,24.95z M67.12,18.64
			c0.3-0.13,0.69-0.41,0.97-0.82c0.28-0.41,0.38-0.86,0.39-1.18c0-0.16-0.01-0.28-0.02-0.37c-0.02-0.09-0.03-0.13-0.03-0.13
			s-0.01,0.05-0.02,0.13c-0.01,0.08-0.04,0.21-0.08,0.35c-0.08,0.29-0.25,0.66-0.5,1.04c-0.25,0.37-0.55,0.67-0.79,0.86
			c-0.12,0.1-0.22,0.17-0.3,0.22c-0.08,0.05-0.12,0.08-0.12,0.08s0.05-0.01,0.14-0.03C66.84,18.75,66.97,18.71,67.12,18.64z
			 M84.66,37.01c0,0-1,0.13-2.2,0.04c-0.56-0.04-1.06-0.12-1.45-0.2c-0.36,0.55-0.97,0.92-1.7,0.93l-24.06,0.35
			c1.42,0.08,2.98,0.18,4.63,0.3c6.33,0.46,11.44,1.03,11.44,1.03s-5.14-0.17-11.47-0.63c-3.01-0.22-5.72-0.46-7.76-0.65l-2.28,0.03
			c3.7,0.28,6.65,0.68,6.65,0.68s-3.11-0.02-6.92-0.3c-1.35-0.1-2.6-0.21-3.66-0.32l-4.09,0.06l0.04-0.42
			c0.4-4.43,1-11.68,0.9-12.26c-0.16-0.94,0.08-1.32,0.16-1.42l0.07-0.08l18.27-6.65c-0.03-0.1-0.09-0.17-0.11-0.27
			c-0.24-1.15,0.08-2.29,0.85-3.04c0.67-0.64,1.57-0.94,2.59-0.86c0.11-0.74-0.03-2-1.73-3.2C62.65,10,62.61,9.76,62.74,9.6
			c0.13-0.17,0.38-0.2,0.56-0.08c1.78,1.25,2.11,2.57,2.08,3.47c0.63-0.24,1.31-0.25,1.98-0.02c1.17,0.4,2.1,1.47,2.36,2.73
			c0.01,0.06,0.01,0.11,0.02,0.17c8.99,2.04,12.4,5.25,12.54,5.38l0.13,0.12l-1.04,14.31c0.2-0.02,0.43-0.04,0.69-0.02
			c0.68,0.05,1.22,0.29,1.22,0.29s-0.57,0.16-1.25,0.11c-0.26-0.02-0.49-0.07-0.68-0.12l0,0.03c-0.02,0.24-0.09,0.46-0.18,0.66
			c0.37-0.01,0.82-0.02,1.33,0.02C83.7,36.74,84.66,37.01,84.66,37.01z M65.17,14.09c0.09-0.04,0.16-0.08,0.23-0.13
			c0.13-0.09,0.18-0.15,0.2-0.17c-0.13,0.06-0.26,0.07-0.38,0.15C65.19,14.01,65.17,14.06,65.17,14.09z M61.89,17.08
			c0.38,1.83,2.27,3.04,4.22,2.7c0.94-0.17,1.75-0.67,2.29-1.42c0.53-0.75,0.73-1.65,0.54-2.53v0c-0.21-1-0.93-1.85-1.84-2.16
			c-0.5-0.17-1-0.1-1.47,0.1c0,0.01,0,0.02-0.01,0.07c-0.01,0.05-0.04,0.13-0.1,0.22c-0.11,0.18-0.34,0.38-0.67,0.48
			c-0.32,0.09-0.62,0.07-0.82,0.03c-0.2-0.04-0.33-0.08-0.33-0.08s0.13-0.03,0.32-0.07c0.14-0.03,0.31-0.06,0.49-0.11
			c-0.08-0.06-0.12-0.15-0.14-0.24c-0.73-0.03-1.37,0.19-1.84,0.64C61.94,15.29,61.7,16.17,61.89,17.08z M64.79,20.5
			c0.06,0.03,0.14,0.06,0.19,0.07c0.02,0,0.04-0.01,0.06-0.01C64.95,20.55,64.87,20.52,64.79,20.5z M43.51,25.54
			c0.03,0.17,0.02,0.72-0.02,1.47l35.86-0.47l0.26-3.55c0.04-0.56-0.24-1.11-0.74-1.44c-3.97-2.64-8.48-3.59-9.31-3.75
			c-0.12,0.35-0.28,0.68-0.5,0.99c-0.61,0.86-1.54,1.42-2.6,1.66c0.05,0.01,0.12,0.01,0.17,0.03c0.34,0.09,0.63,0.19,0.87,0.25
			c0.25,0.06,0.45,0.09,0.59,0.09c0.07,0.01,0.13-0.01,0.17-0.01c0.04,0,0.06,0,0.06,0s-0.02,0.01-0.06,0.02
			c-0.04,0.01-0.09,0.03-0.16,0.04c-0.14,0.03-0.36,0.04-0.63,0.01c-0.26-0.03-0.57-0.1-0.9-0.15c-0.33-0.05-0.68-0.08-1.01,0.04
			c-0.17,0.06-0.4,0.15-0.65,0.09c-0.12-0.03-0.2-0.08-0.28-0.12c-0.08-0.04-0.14-0.07-0.22-0.1c-0.3-0.11-0.6-0.12-0.84-0.1
			c-0.25,0.03-0.44,0.1-0.57,0.15c-0.06,0.03-0.11,0.05-0.15,0.07c-0.03,0.02-0.05,0.03-0.05,0.03s0.01-0.01,0.04-0.04
			c0.03-0.03,0.07-0.06,0.13-0.1c0.12-0.08,0.3-0.19,0.56-0.26c0.16-0.04,0.36-0.05,0.56-0.05c-1.13-0.35-2.06-1.11-2.59-2.14
			l-18,6.55C43.47,24.87,43.44,25.11,43.51,25.54z M43.44,27.92l31.38-0.42c0.06-0.05,0.09-0.09,0.15-0.14
			c0.17-0.12,0.33-0.21,0.46-0.27l-31.97,0.42C43.45,27.64,43.44,27.78,43.44,27.92z M76.32,27.34c0.13-0.12,0.25-0.19,0.36-0.27
			l-0.42,0.01c-0.08,0.07-0.25,0.22-0.5,0.41l0.43-0.01C76.24,27.43,76.26,27.39,76.32,27.34z M76.16,27.08l-0.58,0.01
			c-0.11,0.1-0.27,0.23-0.5,0.4c0,0-0.01,0.01-0.01,0.01l0.43-0.01c0.04-0.03,0.05-0.06,0.1-0.09c0.18-0.14,0.37-0.23,0.51-0.3
			C76.14,27.09,76.13,27.09,76.16,27.08z M43.12,32.2l0.76-0.01c0.17-0.2,0.38-0.43,0.64-0.66c0.32-0.29,0.65-0.51,0.9-0.66
			l-2.2,0.03C43.19,31.32,43.15,31.76,43.12,32.2z M58.89,31.95c0,0,0.34-0.48,0.89-0.93c0.17-0.14,0.34-0.26,0.49-0.36l-11.47,0.15
			c-0.1,0.1-0.39,0.38-0.83,0.72c-0.37,0.28-0.71,0.5-0.89,0.61l14.41-0.19c0.06-0.08,0.34-0.45,0.79-0.79
			c0.36-0.28,0.71-0.45,0.89-0.54l-2.57,0.03c-0.15,0.17-0.35,0.38-0.61,0.59C59.45,31.7,58.89,31.95,58.89,31.95z M67.04,31.84
			c0,0,0.29-0.51,0.84-0.95c0.17-0.13,0.33-0.24,0.48-0.33l-2.26,0.03c-0.23,0.18-0.56,0.44-0.97,0.71
			c-0.41,0.27-0.78,0.48-1.04,0.62l9.12-0.12c0.01-0.01,0.01-0.01,0.01-0.02c0.18-0.21,0.44-0.47,0.77-0.72
			c0.33-0.25,0.67-0.43,0.93-0.54c0.05-0.02,0.09-0.03,0.13-0.05l-3.49,0.05c-0.02,0.03-0.28,0.41-0.73,0.77
			c-0.46,0.37-0.95,0.55-0.95,0.55s0.27-0.41,0.74-0.78c0.4-0.32,0.8-0.49,0.9-0.53l-2.83,0.04c-0.16,0.16-0.37,0.36-0.62,0.56
			C67.55,31.55,67.04,31.84,67.04,31.84z M76.46,31.03c0.28-0.25,0.56-0.44,0.79-0.59l-0.78,0.01c-0.04,0.04-0.51,0.47-1.13,0.93
			c-0.2,0.15-0.39,0.28-0.57,0.4l0.99-0.01C75.93,31.55,76.16,31.29,76.46,31.03z M76.44,30.45l-1.21,0.02
			c-0.18,0.16-0.56,0.49-1.02,0.83c-0.26,0.2-0.51,0.36-0.71,0.5l0.95-0.01c0.17-0.19,0.39-0.42,0.69-0.64
			c0.33-0.25,0.67-0.43,0.93-0.54C76.27,30.51,76.39,30.46,76.44,30.45z M65.79,30.59l-2.53,0.03c-0.09,0.12-0.36,0.45-0.77,0.77
			c-0.39,0.3-0.78,0.49-0.94,0.56l2.37-0.03c0.19-0.2,0.53-0.55,1.03-0.87C65.26,30.85,65.54,30.7,65.79,30.59z M48.66,30.82
			l-1.25,0.02c-0.17,0.17-0.46,0.44-0.83,0.71c-0.39,0.29-0.75,0.5-0.96,0.62l1.4-0.02c0.03-0.05,0.08-0.13,0.15-0.22
			c0.13-0.18,0.34-0.41,0.61-0.62c0.27-0.21,0.55-0.35,0.76-0.44C48.59,30.84,48.62,30.83,48.66,30.82z M47.17,30.84l-1.52,0.02
			c-0.21,0.22-0.52,0.54-0.91,0.89c-0.18,0.16-0.36,0.31-0.53,0.44l1.29-0.02c0.13-0.17,0.43-0.53,0.88-0.86
			C46.67,31.09,46.95,30.94,47.17,30.84z M42.75,36.46l34.89-0.77c0.59-0.02,1.07-0.46,1.11-1.02l0.18-2.44l-35.41,0.47
			c-0.05,0.03-0.09,0.06-0.09,0.06s0.03-0.04,0.04-0.06l-0.41,0.01C42.96,34.11,42.84,35.46,42.75,36.46z M79.07,30.41l-1.56,0.02
			c-0.2,0.22-0.49,0.51-0.84,0.82c-0.22,0.2-0.43,0.36-0.62,0.51l2.92-0.04L79.07,30.41z M79.25,27.94l-3.49,0.05
			c0,0-0.03,0.02-0.03,0.02s0.01-0.02,0.01-0.02L43.4,28.42c-0.04,0.61-0.09,1.27-0.14,1.97l35.85-0.47L79.25,27.94z M79.31,27.04
			l-2.47,0.03c-0.11,0.11-0.24,0.25-0.4,0.39c-0.01,0.01-0.01,0.01-0.02,0.02l2.86-0.04L79.31,27.04z M80.54,35.91l1.04-14.26
			c-0.68-0.57-4.16-3.23-11.79-5c-0.01,0.14-0.02,0.27-0.04,0.41c0.99,0.19,5.5,1.16,9.58,3.87c0.72,0.48,1.14,1.29,1.08,2.11
			l-0.85,11.68c-0.07,0.94-0.88,1.68-1.88,1.71l-34.99,0.78c-0.01,0.13-0.02,0.25-0.03,0.35l36.63-0.53
			C79.96,37.02,80.49,36.54,80.54,35.91z M13.8,89.37c0,0.34-0.28,0.62-0.62,0.62s-0.62-0.28-0.62-0.62c0-0.34,0.28-0.62,0.62-0.62
			S13.8,89.03,13.8,89.37z M112.81,88.86c-0.34,0-0.62,0.28-0.62,0.62c0,0.34,0.28,0.62,0.62,0.62c0.34,0,0.62-0.28,0.62-0.62
			C113.43,89.14,113.15,88.86,112.81,88.86z M15.24,94.1h0.84v-2.53h0.02c0.28,0.46,0.82,0.73,1.43,0.73c1.1,0,2.11-0.83,2.11-2.5
			c0-1.41-0.85-2.36-1.97-2.36c-0.76,0-1.31,0.34-1.65,0.9h-0.02l-0.04-0.8H15.2c0.02,0.44,0.04,0.92,0.04,1.52V94.1z M16.07,89.5
			c0-0.12,0.03-0.24,0.06-0.35c0.16-0.63,0.7-1.05,1.28-1.05c0.89,0,1.38,0.8,1.38,1.73c0,1.07-0.52,1.8-1.41,1.8
			c-0.61,0-1.11-0.4-1.27-0.99c-0.02-0.11-0.04-0.22-0.04-0.35V89.5z M24.47,92.2c-0.06-0.32-0.08-0.71-0.08-1.11v-1.74
			c0-0.93-0.35-1.9-1.77-1.9c-0.59,0-1.14,0.16-1.53,0.41l0.19,0.56c0.33-0.21,0.78-0.35,1.21-0.35c0.95,0,1.06,0.69,1.06,1.08v0.1
			c-1.8-0.01-2.8,0.61-2.8,1.73c0,0.67,0.48,1.34,1.42,1.34c0.66,0,1.16-0.33,1.42-0.69h0.03l0.07,0.59H24.47z M23.58,90.63
			c0,0.09-0.02,0.18-0.05,0.27c-0.13,0.39-0.52,0.78-1.12,0.78c-0.43,0-0.8-0.26-0.8-0.81c0-0.9,1.05-1.07,1.97-1.05V90.63z
			 M26.18,92.2h0.85v-2.8c0-0.14,0.02-0.29,0.06-0.39c0.14-0.47,0.58-0.86,1.13-0.86c0.8,0,1.08,0.62,1.08,1.37v2.68h0.85v-2.78
			c0-1.6-1-1.98-1.64-1.98c-0.77,0-1.31,0.43-1.54,0.87h-0.02l-0.05-0.77h-0.75c0.03,0.38,0.04,0.78,0.04,1.26V92.2z M35.28,92.2
			c-0.06-0.32-0.08-0.71-0.08-1.11v-1.74c0-0.93-0.35-1.9-1.77-1.9c-0.59,0-1.14,0.16-1.53,0.41l0.19,0.56
			c0.33-0.21,0.78-0.35,1.21-0.35c0.95,0,1.06,0.69,1.06,1.08v0.1c-1.8-0.01-2.8,0.61-2.8,1.73c0,0.67,0.48,1.34,1.42,1.34
			c0.66,0,1.16-0.33,1.42-0.69h0.03l0.07,0.59H35.28z M34.39,90.63c0,0.09-0.02,0.18-0.05,0.27c-0.13,0.39-0.52,0.78-1.12,0.78
			c-0.43,0-0.8-0.26-0.8-0.81c0-0.9,1.05-1.07,1.97-1.05V90.63z M40.16,85.37v2.78h-0.02c-0.21-0.37-0.69-0.71-1.4-0.71
			c-1.13,0-2.09,0.95-2.09,2.5c0,1.41,0.86,2.36,1.99,2.36c0.76,0,1.33-0.39,1.59-0.91h0.02l0.04,0.81h0.76
			c-0.03-0.32-0.04-0.79-0.04-1.2v-5.62H40.16z M40.16,90.24c0,0.13-0.01,0.25-0.04,0.37c-0.15,0.63-0.67,1.01-1.24,1.01
			c-0.91,0-1.37-0.78-1.37-1.72c0-1.03,0.52-1.8,1.39-1.8c0.63,0,1.1,0.44,1.22,0.98c0.03,0.11,0.04,0.25,0.04,0.36V90.24z
			 M46.57,90.02c0.01-0.09,0.03-0.22,0.03-0.39c0-0.86-0.4-2.19-1.92-2.19c-1.35,0-2.18,1.11-2.18,2.51c0,1.4,0.86,2.34,2.29,2.34
			c0.74,0,1.25-0.15,1.55-0.29l-0.14-0.61c-0.32,0.13-0.68,0.24-1.29,0.24c-0.85,0-1.58-0.47-1.6-1.61H46.57z M43.31,89.42
			c0.07-0.59,0.44-1.37,1.3-1.37c0.95,0,1.18,0.84,1.17,1.37H43.31z M48.07,92.2h0.84v-2.48c0-0.14,0.02-0.28,0.04-0.39
			c0.12-0.63,0.54-1.09,1.13-1.09c0.12,0,0.2,0.01,0.29,0.03v-0.8c-0.08-0.02-0.14-0.03-0.24-0.03c-0.57,0-1.08,0.39-1.29,1.02H48.8
			l-0.03-0.91h-0.74c0.03,0.43,0.04,0.9,0.04,1.45V92.2z M52.46,85.54l-0.85,1.37h0.61l1.17-1.37H52.46z M52.52,92.2v-4.65h-0.85
			v4.65H52.52z M57.69,92.2c-0.06-0.32-0.08-0.71-0.08-1.11v-1.74c0-0.93-0.35-1.9-1.77-1.9c-0.59,0-1.14,0.16-1.53,0.41l0.19,0.56
			c0.33-0.21,0.78-0.35,1.21-0.35c0.95,0,1.06,0.69,1.06,1.08v0.1c-1.8-0.01-2.8,0.61-2.8,1.73c0,0.67,0.48,1.34,1.42,1.34
			c0.66,0,1.16-0.33,1.42-0.69h0.03l0.07,0.59H57.69z M56.8,90.63c0,0.09-0.02,0.18-0.05,0.27c-0.13,0.39-0.52,0.78-1.12,0.78
			c-0.43,0-0.8-0.26-0.8-0.81c0-0.9,1.05-1.07,1.97-1.05V90.63z M66.94,92.2c-0.38-0.41-0.72-0.78-1.07-1.14
			c0.48-0.57,0.76-1.37,0.93-2.39h-0.77c-0.12,0.82-0.33,1.44-0.62,1.89c-0.41-0.46-1.03-1.17-1.58-1.81v-0.03
			c1.03-0.51,1.42-1.05,1.42-1.73c0-0.84-0.62-1.37-1.43-1.37c-1.08,0-1.64,0.81-1.64,1.6c0,0.46,0.2,0.93,0.54,1.35v0.03
			c-0.74,0.4-1.27,1.01-1.27,1.89c0,0.97,0.73,1.82,1.99,1.82c0.71,0,1.34-0.22,1.89-0.74c0.25,0.27,0.42,0.45,0.61,0.63H66.94z
			 M63.59,91.67c-0.78,0-1.33-0.57-1.33-1.31c0-0.68,0.49-1.1,0.84-1.32c0.72,0.83,1.44,1.61,1.83,2.04
			C64.62,91.42,64.15,91.67,63.59,91.67z M63.77,86.19c0.53,0,0.75,0.44,0.75,0.84c0,0.55-0.42,0.89-1.08,1.27
			c-0.28-0.35-0.49-0.7-0.49-1.16C62.96,86.63,63.23,86.19,63.77,86.19z M73.73,91.39c-0.24,0.11-0.56,0.23-1.04,0.23
			c-0.92,0-1.61-0.66-1.61-1.74c0-0.97,0.58-1.76,1.64-1.76c0.46,0,0.78,0.11,0.98,0.22l0.19-0.65c-0.23-0.12-0.67-0.24-1.17-0.24
			c-1.52,0-2.5,1.04-2.5,2.47c0,1.42,0.91,2.37,2.32,2.37c0.62,0,1.11-0.15,1.34-0.27L73.73,91.39z M77.2,87.44
			c-1.29,0-2.31,0.91-2.31,2.47c0,1.47,0.97,2.39,2.23,2.39c1.12,0,2.32-0.75,2.32-2.47C79.44,88.41,78.53,87.44,77.2,87.44z
			 M77.18,88.07c1,0,1.39,1,1.39,1.79c0,1.05-0.61,1.81-1.41,1.81c-0.83,0-1.41-0.77-1.41-1.79C75.75,89,76.18,88.07,77.18,88.07z
			 M80.93,92.2h0.85v-2.8c0-0.14,0.02-0.29,0.06-0.39c0.14-0.47,0.58-0.86,1.13-0.86c0.8,0,1.08,0.62,1.08,1.37v2.68h0.85v-2.78
			c0-1.6-1-1.98-1.64-1.98c-0.77,0-1.31,0.43-1.54,0.87h-0.02l-0.05-0.77h-0.75c0.03,0.38,0.04,0.78,0.04,1.26V92.2z M87.6,92.2
			v-4.01h1.12v-0.64H87.6v-0.25c0-0.71,0.18-1.35,0.9-1.35c0.24,0,0.41,0.05,0.54,0.11l0.12-0.65c-0.16-0.07-0.42-0.13-0.72-0.13
			c-0.39,0-0.82,0.12-1.13,0.43c-0.39,0.37-0.54,0.97-0.54,1.62v0.22h-0.65v0.64h0.65v4.01H87.6z M90.48,85.71
			c-0.31,0-0.53,0.23-0.53,0.53c0,0.29,0.21,0.52,0.51,0.52c0.34,0,0.55-0.23,0.54-0.52C91,85.94,90.79,85.71,90.48,85.71z
			 M90.9,92.2v-4.65h-0.85v4.65H90.9z M92.92,86.43v1.11H92.2v0.64h0.72v2.54c0,0.55,0.09,0.96,0.33,1.21
			c0.2,0.23,0.52,0.36,0.91,0.36c0.33,0,0.59-0.05,0.75-0.12l-0.04-0.63c-0.11,0.03-0.27,0.06-0.49,0.06c-0.47,0-0.63-0.33-0.63-0.9
			v-2.51h1.21v-0.64h-1.21v-1.34L92.92,86.43z M100.01,90.02c0.01-0.09,0.03-0.22,0.03-0.39c0-0.86-0.4-2.19-1.92-2.19
			c-1.35,0-2.18,1.11-2.18,2.51c0,1.4,0.86,2.34,2.29,2.34c0.74,0,1.25-0.15,1.55-0.29l-0.14-0.61c-0.32,0.13-0.68,0.24-1.29,0.24
			c-0.85,0-1.58-0.47-1.6-1.61H100.01z M96.75,89.42c0.07-0.59,0.44-1.37,1.3-1.37c0.95,0,1.18,0.84,1.17,1.37H96.75z M101.51,92.2
			h0.84v-2.48c0-0.14,0.02-0.28,0.04-0.39c0.12-0.63,0.54-1.09,1.13-1.09c0.12,0,0.2,0.01,0.29,0.03v-0.8
			c-0.08-0.02-0.14-0.03-0.24-0.03c-0.57,0-1.08,0.39-1.29,1.02h-0.04l-0.03-0.91h-0.74c0.03,0.43,0.04,0.9,0.04,1.45V92.2z
			 M105.9,85.54l-0.85,1.37h0.61l1.17-1.37H105.9z M105.96,92.2v-4.65h-0.85v4.65H105.96z M111.13,92.2
			c-0.06-0.32-0.08-0.71-0.08-1.11v-1.74c0-0.93-0.35-1.9-1.77-1.9c-0.59,0-1.14,0.16-1.53,0.41l0.19,0.56
			c0.33-0.21,0.78-0.35,1.21-0.35c0.95,0,1.06,0.69,1.06,1.08v0.1c-1.8-0.01-2.8,0.61-2.8,1.73c0,0.67,0.48,1.34,1.42,1.34
			c0.66,0,1.16-0.33,1.42-0.69h0.03l0.07,0.59H111.13z M110.23,90.63c0,0.09-0.02,0.18-0.05,0.27c-0.13,0.39-0.52,0.78-1.12,0.78
			c-0.43,0-0.8-0.26-0.8-0.81c0-0.9,1.05-1.07,1.97-1.05V90.63z"/>
		<path class="st1" d="M43.36,57.04c0,2.93-1.15,4.13-3.38,4.13h-1.79v-8.26h2.51C42.76,52.91,43.36,54.12,43.36,57.04z
			 M24.58,52.91c-1.75,0-2.55,1.33-2.55,4.13v12.18c0,2.84,0.84,4.18,2.55,4.18c1.67,0,2.55-1.25,2.55-4.18V57.04
			C27.13,54.16,26.29,52.91,24.58,52.91z M0,43.74v39.33h125V43.74H0z M16.99,51.36c0,0.86-0.64,1.55-1.43,1.55H9.51V61h4.46
			c0.79,0,1.43,0.69,1.43,1.55v1.16c0,0.86-0.64,1.55-1.43,1.55H9.51v10.85c0,0.86-0.68,1.55-1.43,1.55H6.96
			c-0.8,0-1.43-0.69-1.43-1.55V50.2c0-0.86,0.64-1.55,1.43-1.55h8.59c0.8,0,1.43,0.69,1.43,1.55V51.36z M31.11,69.22
			c0,3.4-0.84,5.38-2.07,6.72c-1.31,1.38-2.98,1.72-4.46,1.72c-1.43,0-3.1-0.34-4.41-1.72c-1.23-1.33-2.11-3.31-2.11-6.72V57.04
			c0-5.42,2.19-8.39,6.52-8.39c4.38,0,6.52,2.93,6.52,8.39V69.22z M47.02,68.88v7.19c0,0.86-0.64,1.55-1.43,1.55h-1.11
			c-0.8,0-1.43-0.69-1.43-1.55v-7.19c0-2.15-1.11-3.36-3.06-3.36h-1.79v10.55c0,0.86-0.64,1.55-1.39,1.55h-1.11
			c-0.8,0-1.43-0.69-1.43-1.55V50.16c0-0.86,0.64-1.55,1.43-1.55h5.01c4.89,0,6.6,2.67,6.6,8.44c0,2.67-0.44,4.82-1.67,6.16
			c-0.12,0.13-0.2,0.22-0.32,0.34C46.46,64.88,47.02,66.64,47.02,68.88z M69.81,51.36c0,0.86-0.64,1.55-1.43,1.55h-6.09V61h5.01
			c0.8,0,1.43,0.69,1.43,1.55v1.16c0,0.86-0.64,1.55-1.43,1.55h-5.01v8.14h6.09c0.8,0,1.43,0.69,1.43,1.55v1.16
			c0,0.86-0.64,1.55-1.43,1.55h-8.59c-0.8,0-1.43-0.69-1.43-1.55V50.2c0-0.86,0.64-1.55,1.43-1.55h8.59c0.8,0,1.43,0.69,1.43,1.55
			V51.36z M83.49,76.11c0,0.86-0.64,1.55-1.43,1.55h-8.47c-0.8,0-1.43-0.69-1.43-1.55V50.2c0-0.86,0.64-1.55,1.43-1.55h1.15
			c0.76,0,1.39,0.69,1.39,1.55v23.2h5.93c0.8,0,1.43,0.69,1.43,1.55V76.11z M89.58,76.11c0,0.86-0.68,1.55-1.43,1.55h-1.11
			c-0.8,0-1.43-0.69-1.43-1.55V50.2c0-0.86,0.64-1.55,1.43-1.55h1.11c0.76,0,1.43,0.69,1.43,1.55V76.11z M105.4,57.65
			c0,0.86-0.64,1.55-1.43,1.55h-1.11c-0.8,0-1.43-0.69-1.43-1.55v-0.6c0-2.84-0.84-4.13-2.59-4.13c-1.67,0-2.59,0.99-2.59,3.23
			c0,2.2,1.95,3.87,3.9,5.51h-0.04c2.63,2.2,5.29,4.39,5.29,8.57c0,4.82-2.35,7.4-6.56,7.4c-4.37,0-6.56-2.75-6.56-8.39v-0.56
			c0-0.86,0.64-1.55,1.43-1.55h1.11c0.76,0,1.43,0.69,1.43,1.55v0.56c0,2.07,0.36,3.06,0.91,3.57c0.44,0.47,1.11,0.56,1.67,0.56
			c1.67,0,2.59-0.77,2.59-3.06c0-2.02-1.83-3.62-3.78-5.25v0.04c-2.63-2.24-5.37-4.56-5.37-8.82c0-4.86,2.35-7.66,6.56-7.66
			c4.3,0,6.56,2.97,6.56,8.44V57.65z M119.52,51.36c0,0.86-0.64,1.55-1.43,1.55h-6.09V61h5.01c0.8,0,1.43,0.69,1.43,1.55v1.16
			c0,0.86-0.64,1.55-1.43,1.55h-5.01v8.14h6.09c0.8,0,1.43,0.69,1.43,1.55v1.16c0,0.86-0.64,1.55-1.43,1.55h-8.59
			c-0.8,0-1.43-0.69-1.43-1.55V50.2c0-0.86,0.64-1.55,1.43-1.55h8.59c0.8,0,1.43,0.69,1.43,1.55V51.36z"/>
	</g>
</g>
</svg>
